<svg y="0px" x="0px" viewBox="0 0 66.24 64.32000000000001" xmlns="http://www.w3.org/2000/svg" style="max-height: 500px" width="66.24" height="64.32000000000001"><title>Berries-berry-blueberry-food-fruit-gastronomy</title><path d="M16.989,42.369a5.559,5.559,0,0,0,0,7.863L18.4,48.818a3.56,3.56,0,0,1,0-5.035Z"/><path d="M21.458,30.53a5.525,5.525,0,0,0-3.932,1.628l1.414,1.414a3.649,3.649,0,0,1,5.035,0l1.414-1.414A5.524,5.524,0,0,0,21.458,30.53Z"/><path d="M26.464,47.206,25.05,48.62a5.568,5.568,0,0,0,7.863,0L31.5,47.206A3.566,3.566,0,0,1,26.464,47.206Z"/><path d="M51,39.071a4,4,0,1,0,4,4A4,4,0,0,0,51,39.071Zm0,6a2,2,0,1,1,2-2A2,2,0,0,1,51,45.071Z"/><path d="M22.293,14.778a1,1,0,1,0,1.414-1.414l-2-2a1,1,0,0,0-1.414,1.414Z"/><path d="M18.293,18.778a1,1,0,0,0,1.414-1.414l-2-2a1,1,0,1,0-1.414,1.414Z"/><path d="M15,23.071a1,1,0,0,0,.707-1.707l-2-2a1,1,0,1,0-1.414,1.414l2,2A.993.993,0,0,0,15,23.071Z"/><path d="M52.055,16.112a18.915,18.915,0,0,0-3.62-5.091L42.071,4.657l-6.364,6.364a19.036,19.036,0,0,0-3.436,4.7,27.429,27.429,0,0,0-3.786-5.133,11.955,11.955,0,0,0-9.433-3.474,4.984,4.984,0,0,0-1.274-4.819l-.707-.707-4.95,4.95a4.951,4.951,0,0,0-1.4,2.846l-.19-.19A10.587,10.587,0,0,0,3,6.071a1,1,0,0,0,0,2,8.6,8.6,0,0,1,6.121,2.535l.131.131a4.954,4.954,0,0,0-2.717,1.385L1.586,17.071l.707.707a4.935,4.935,0,0,0,5.731.932,11.863,11.863,0,0,0,2.541,7.767,5.51,5.51,0,0,0-2.618,5.864c-.063.036-.119.082-.181.12-.084.053-.167.107-.249.165a5.559,5.559,0,0,0-.739.607,5.656,5.656,0,0,0-.62.754c-.055.078-.1.159-.155.239a5.561,5.561,0,0,0-.357.667c-.03.068-.066.133-.094.2a5.465,5.465,0,0,0-.277.914c-.013.064-.02.128-.031.192a5.4,5.4,0,0,0-.083.842c0,.041-.012.08-.012.122,0,.023.007.046.007.07a5.619,5.619,0,0,0,.1.974c.014.072.038.14.054.21.038.161.07.323.123.481-.091.079-.178.161-.262.245A5.538,5.538,0,0,0,4.147,45.6c-.043.057-.075.122-.116.18-.072.1-.137.206-.2.312a5.39,5.39,0,0,0-.305.571c-.052.113-.1.224-.148.34a5.3,5.3,0,0,0-.2.654c-.026.106-.06.208-.079.315a5.551,5.551,0,0,0-.1,1.01v0H3a5.522,5.522,0,0,0,.931,3.083,5.657,5.657,0,0,0,.7.848,5.573,5.573,0,0,0,1.65,1.139c.008.058.028.113.038.171.019.11.047.216.072.325a5.581,5.581,0,0,0,.193.65c.039.109.081.215.128.322a5.31,5.31,0,0,0,.326.62c.055.092.1.185.165.274a5.194,5.194,0,0,0,1.4,1.419c.076.054.159.094.238.144a5.458,5.458,0,0,0,.592.332c.107.05.218.088.328.131a5.452,5.452,0,0,0,.561.192c.132.036.266.062.4.088.1.02.194.052.295.066.063.139.151.265.225.4.083.15.154.3.252.447a5.478,5.478,0,0,0,.661.8,5.615,5.615,0,0,0,.849.7,5.516,5.516,0,0,0,3.082.931h.006a5.629,5.629,0,0,0,1.009-.1c.105-.019.2-.052.307-.077a5.457,5.457,0,0,0,.667-.2c.11-.042.217-.092.324-.141a5.512,5.512,0,0,0,.592-.317c.1-.061.2-.122.294-.19.06-.043.128-.076.187-.121.08.041.165.066.247.1.117.052.233.1.352.147a5.471,5.471,0,0,0,.7.206c.077.018.151.041.227.055a5.515,5.515,0,0,0,2.013,0c.056-.01.111-.027.167-.039a5.6,5.6,0,0,0,.785-.232c.085-.033.169-.067.252-.1a5.606,5.606,0,0,0,.673-.353c.079-.049.16-.092.238-.145a5.677,5.677,0,0,0,.806-.657c.083-.084.165-.171.243-.261a5.542,5.542,0,0,0,5.667-1.352,5.47,5.47,0,0,0,.891-1.167,5.557,5.557,0,0,0,3.307-.374A13.987,13.987,0,1,0,56.8,38.093,18.8,18.8,0,0,0,62,25.071v-9H53C52.684,16.071,52.37,16.1,52.055,16.112ZM37.121,12.435l4.95-4.95,4.95,4.95a16.992,16.992,0,0,1,2.906,3.895A19.031,19.031,0,0,0,43,18.936V13a1,1,0,0,0-2,0v2.586l-1.293-1.293a1,1,0,0,0-1.414,1.414L41,18.414v1.708c-.332-.024-.662-.051-1-.051a13.977,13.977,0,0,0-7.724,2.347A16.868,16.868,0,0,1,37.121,12.435ZM52,34.071c0,.309-.02.617-.043.924a13.847,13.847,0,0,0-13.409,1.942,5.369,5.369,0,0,0-1.6-1.672c-.026-.018-.051-.039-.078-.057a5.55,5.55,0,0,0-.853-.456c-.042-.018-.083-.038-.125-.055a5.455,5.455,0,0,0-.9-.274l-.157-.032a5.6,5.6,0,0,0-.927-.091c-.031,0-.061-.008-.092-.008s-.071.009-.107.01c-.073,0-.145,0-.218,0A5.512,5.512,0,0,0,32.375,32.7l-.007-.006a6.306,6.306,0,0,1,7.316-2.67L40,29.071a4.066,4.066,0,1,0,.141-1,8.312,8.312,0,0,0-6.928.952,4.961,4.961,0,0,0-1.435-3.247l-.218-.218a11.831,11.831,0,0,1,9.839-3.4.667.667,0,0,0,.088.013A12.011,12.011,0,0,1,52,34.071ZM26.949,23.778l3.415,3.414a3.009,3.009,0,0,1,.586,3.414l-3.415-3.414A3.008,3.008,0,0,1,26.949,23.778ZM42,29.071a2,2,0,1,1,2,2A2,2,0,0,1,42,29.071ZM13.535,7.95,16.95,4.536a3.007,3.007,0,0,1-.586,3.414l-3.415,3.414A3.007,3.007,0,0,1,13.535,7.95Zm-9,9,3.414-3.414a3,3,0,0,1,3.415-.586L7.95,16.364A3.008,3.008,0,0,1,4.535,16.95Zm5.712-.055,4.066-4.066h0l3.465-3.464c.043-.043.072-.094.112-.137l.014.065A9.975,9.975,0,0,1,27.071,12a28.764,28.764,0,0,1,4.21,6.015,18.973,18.973,0,0,0-1.123,6.122l-.01.011-3.165-3.165a.981.981,0,0,0-.276-.619l-2-2a1,1,0,1,0-1.414,1.414l2,2a.964.964,0,0,0,.434.24,4.97,4.97,0,0,0-1,3.706,5.552,5.552,0,0,0-1.237.249q-.119-.136-.246-.264c-.1-.1-.211-.169-.314-.258a1,1,0,0,0-.218-1.087l-2-2a1,1,0,1,0-1.414,1.414l.334.334c-.107-.006-.211-.031-.319-.031a5.523,5.523,0,0,0-3.931,1.628c-.084.084-.166.172-.245.262a5.531,5.531,0,0,0-2.539-.21A9.92,9.92,0,0,1,10.247,16.9ZM32.542,55l-.948-.364-.349.954a3.532,3.532,0,0,1-4.033,2.258,5.558,5.558,0,0,0-1.285-5.8l-1.414,1.414a3.566,3.566,0,0,1,.474,4.441,3.6,3.6,0,0,1-.474.594,3.522,3.522,0,0,1-.533.435c-.053.036-.111.061-.165.094a3.51,3.51,0,0,1-.429.225c-.062.027-.127.045-.191.068a3.491,3.491,0,0,1-.445.132c-.066.014-.133.023-.2.034a3.616,3.616,0,0,1-.453.043c-.071,0-.143,0-.214,0a3.553,3.553,0,0,1-.425-.04c-.083-.013-.165-.026-.247-.045a3.351,3.351,0,0,1-.351-.1,5.5,5.5,0,0,0,.673-1.72l-1.961-.395a3.526,3.526,0,0,1-.972,1.81,3.655,3.655,0,0,1-3.87.757,3.385,3.385,0,0,1-1.165-.757,3.571,3.571,0,0,1-.492-.629c-.041-.064-.071-.133-.107-.2a3.453,3.453,0,0,1-.239-.537,3.491,3.491,0,0,1,.838-3.668L12.152,52.58a5.522,5.522,0,0,0-1.629,3.931c0,.032.009.063.01.095-.055-.02-.112-.033-.166-.057a3.3,3.3,0,0,1-.365-.2c-.073-.042-.15-.075-.22-.123a3.537,3.537,0,0,1-.457-.376c-.018-.018-.04-.031-.058-.049a3.6,3.6,0,0,1-.447-.547c-.047-.07-.078-.149-.12-.222a3.667,3.667,0,0,1-.2-.387c-.042-.1-.065-.209-.1-.313s-.077-.224-.1-.339a3.787,3.787,0,0,1-.047-.441c-.007-.085-.025-.17-.025-.255v-.023a3.545,3.545,0,0,1,1.04-2.508L7.853,49.355a5.5,5.5,0,0,0-1.4,2.467,3.508,3.508,0,0,1-.405-.317,3.593,3.593,0,0,1-.447-.543A3.535,3.535,0,0,1,5,48.988c0-.028.007-.053.008-.081A3.526,3.526,0,0,1,6.043,46.47a3.647,3.647,0,0,1,5.034,0l1.414-1.414a5.505,5.505,0,0,0-6.75-.838,3.524,3.524,0,0,1,.716-3.512c.108.129.2.269.321.39l1.414-1.414a3.556,3.556,0,0,1-.708-1.032c-.039-.085-.075-.171-.107-.258a3.572,3.572,0,0,1-.114-.378c-.018-.073-.039-.146-.052-.22a3.557,3.557,0,0,1-.062-.629,3.645,3.645,0,0,1,.063-.646c.011-.059.029-.117.043-.176a3.38,3.38,0,0,1,.13-.43c.026-.071.055-.14.086-.209a3.356,3.356,0,0,1,.205-.383c.036-.059.068-.119.107-.176a3.631,3.631,0,0,1,.409-.5c.04-.039.087-.065.128-.1a3.584,3.584,0,0,1,.426-.342,3.666,3.666,0,0,1,4.481.444l1.414-1.414A5.526,5.526,0,0,0,10.709,31.6a5.637,5.637,0,0,0-.835.082,3.547,3.547,0,0,1,5.137-3.6l.808.411.489-.764a3.478,3.478,0,0,1,.483-.605,3.646,3.646,0,0,1,5.034,0,3.53,3.53,0,0,1,.484.605l.488.764.808-.411a3.589,3.589,0,0,1,1.817-.372,4.99,4.99,0,0,0,.7.9l2.645,2.645a3.61,3.61,0,0,1-.075.77l-.2.926.913.253a3.514,3.514,0,0,1,2.1,1.612,5.465,5.465,0,0,0-2.7,2.642l1.8.863a3.56,3.56,0,0,1,.7-.983,3.662,3.662,0,0,1,4.482-.443l.01.007a3.264,3.264,0,0,1,.542.437,5.921,5.921,0,0,1,.66.962A13.927,13.927,0,0,0,34.887,55.06,3.562,3.562,0,0,1,32.542,55ZM59,48.071a12,12,0,1,1-12-12A12.013,12.013,0,0,1,59,48.071Zm1-23A16.819,16.819,0,0,1,55.273,36.8a14.039,14.039,0,0,0-1.4-.917A14.28,14.28,0,0,0,54,34.071,13.9,13.9,0,0,0,52.6,28H56a1,1,0,0,0,0-2H53.414l.292-.292,0,0,4-4a1,1,0,0,0-1.414-1.414L54,22.586V21a1,1,0,0,0-2,0v3.586l-.937.937a14.031,14.031,0,0,0-7.055-4.86A17.019,17.019,0,0,1,53,18.071h7Z"/><text font-family="'Helvetica Neue', Helvetica, Arial-Unicode, Arial, Sans-serif" font-weight="bold" font-size="5px" fill="#000000" y="79" x="0">Created by Pause08</text><text font-family="'Helvetica Neue', Helvetica, Arial-Unicode, Arial, Sans-serif" font-weight="bold" font-size="5px" fill="#000000" y="84" x="0">from the Noun Project</text></svg>