<svg xml:space="preserve" viewBox="0 0 103.49999999999999 100.5" y="0px" x="0px" version="1.1" xmlns:xlink="http://www.w3.org/1999/xlink" xmlns="http://www.w3.org/2000/svg" style="max-height: 500px" width="103.49999999999999" height="100.5"><path d="M95.118,47.695c-0.12-5.633-2.044-7.176-4.749-8.741l-0.037-0.021c-2.071-1.199-14.197-7.65-17.983-9.32  c-2.354-1.039-3.879-1.567-5.646-1.567c-1.167,0-2.372,0.239-3.8,0.595c-1.607,0.402-7.297,1.635-13.29,2.939  c-7.057,1.537-14.258,3.125-16.353,3.664c-4.238,1.09-6.26,3.304-6.26,6.768v26.398c0,3.758,0.071,4.658,3.219,7.68  c1.24,1.19,7.186,5.865,13.653,10.962c1.807,1.425,3.295,2.628,4.167,3.325c1.832,1.466,3.654,2.178,5.609,2.178  c1.537,0,2.903-0.435,4.295-0.918c1.432-0.497,11.493-3.436,19.581-5.797c6.254-1.825,11.593-3.401,13.079-3.865  C95.089,80.571,95,76.69,95,73.572v-0.544c0-0.798,0.066-2.388,0.073-4.412C95.1,62.265,95.201,51.634,95.118,47.695z   M91.923,68.603C91.916,70.634,92,72.229,92,73.028v0.557c0,3.381-0.249,4.618-2.232,5.238c-1.456,0.455-7.147,2.104-13.126,3.849  c-8.965,2.617-18.255,5.321-19.767,5.848c-1.156,0.401-2.205,0.734-3.229,0.734c-0.75,0-1.937-0.151-3.566-1.454  c-0.875-0.701-2.401-1.91-4.216-3.34c-4.837-3.813-12.282-9.574-13.508-10.751C30.113,71.556,30,71.556,30,68.409V42.011  c0-1.31,0.406-2.666,3.932-3.572c2.035-0.523,9.662-2.177,16.362-3.636c6.017-1.31,11.742-2.548,13.398-2.962  c1.429-0.357,2.286-0.496,3.006-0.496c1.068,0,2.085,0.299,4.316,1.285c3.708,1.635,15.624,7.977,17.664,9.158l0.037,0.021  c1.879,1.087,3.06,1.744,3.148,5.956C91.947,51.662,91.95,62.267,91.923,68.603z"/><path d="M9.049,54.385c-1.166-0.874-1.133-4.855-1.107-8.054l0.007-0.998c0.022-4.29,0.206-10.993,0.339-15.887l0.044-1.623  c0.157-5.801,1.932-7.84,5.374-9.768l0.958-0.537c3.803-2.137,7.396-4.154,10.756-5.166c2.6-0.781,5.547-1.669,10.881-1.042  c1.887,0.223,4.161,0.453,6.568,0.696c4.491,0.454,9.582,0.968,11.765,1.426c4.482,0.939,6.226,2.236,6.431,4.787  c0.311,3.888-0.137,7.719-0.141,7.756l3.275,0.393c0.021-0.168,0.493-4.186,0.154-8.413c-0.479-5.958-6.48-7.215-9.043-7.752  C52.955,9.709,47.996,9.208,43.2,8.723c-2.394-0.242-4.655-0.471-6.515-0.689c-6.015-0.708-9.454,0.327-12.218,1.158  c-3.708,1.116-7.629,3.319-11.421,5.449l-0.954,0.535c-4.974,2.786-6.887,6.189-7.059,12.558l-0.044,1.623  c-0.134,4.909-0.317,11.632-0.34,15.959l-0.007,0.989C4.604,50.854,4.57,55.15,7.068,57.025c1.954,1.465,8.074,2.874,15.873,4.564  l1.485,0.321l0.703-3.223l-1.49-0.324C18.756,57.307,10.581,55.534,9.049,54.385z"/><path d="M49.051,52.355c-0.39-0.254-0.746-0.516-1.145-0.8c-0.501-0.357-1.32-0.893-2.324-1.57  c-3.178-2.147-8.505-5.74-12.038-8.738l-2.131,2.516c3.671,3.115,9.103,6.771,12.336,8.957c0.985,0.664,1.808,1.19,2.275,1.523  c0.455,0.325,0.959,0.606,1.379,0.879C50.073,56.857,52,58.002,52,67.254V87h3V67.254C55,56.954,52.744,54.755,49.051,52.355z"/><path d="M83.305,48.611c-3.723,3.443-3.625,11.041-3.548,17.147c0.033,2.522,0.076,5.942-0.358,6.841  c-0.233,0.097-0.373,0.122-0.439,0.129c-0.549-0.582-0.925-3.568-1.229-5.979c-0.282-2.249-0.637-5.048-1.263-8.08  c-0.625-3.028-2.219-5.16-4.369-5.848c-1.546-0.494-3.15-0.156-4.293,0.905c-1.247,1.158-1.698,2.921-1.239,4.836  c0.857,3.582,0.104,5.604-0.803,6.246c-0.199,0.143-0.595,0.341-1,0.081c-0.551-0.355-1.053-1.511-0.65-3.594  c0.455-2.354-0.186-4.392-1.756-5.592c-1.808-1.384-4.465-1.382-7.288,0.003l1.453,2.963c1.609-0.79,3.076-0.921,3.832-0.345  c0.737,0.564,0.642,1.712,0.52,2.345c-0.606,3.14,0.181,5.753,2.104,6.993c1.443,0.93,3.242,0.868,4.695-0.162  c2.369-1.681,3.155-5.31,2.103-9.707c-0.174-0.724-0.073-1.325,0.275-1.649c0.262-0.242,0.642-0.308,1.043-0.18  c0.97,0.31,1.771,1.57,2.143,3.372c0.601,2.905,0.93,5.519,1.22,7.824c0.58,4.603,0.93,7.38,2.932,8.482  c0.467,0.258,0.977,0.386,1.524,0.386c0.635,0,1.322-0.173,2.059-0.519c2.198-1.03,2.154-4.518,2.086-9.796  c-0.065-5.164-0.156-12.236,2.488-14.682c0.779-0.722,1.813-1.014,3.154-0.892l0.3-3.285C86.705,46.647,84.788,47.238,83.305,48.611  z"/><path d="M36.51,20.09c-2.833,0.217-5.682-0.015-5.71-0.018l-0.276,3.289c3.135,0.264,13.408,0.736,13.987-4.259  c0.121-1.044-0.116-3.003-3.063-4.401c-4.582-2.173-14.807-2.061-19.778,3.062c-1.863,1.92-2.471,4.21-1.667,6.283  c1.221,3.149,5.431,5.17,11.55,5.542c0.795,0.049,1.643,0.075,2.53,0.075c8.356,0,20.075-2.376,20.883-11.485l-3.287-0.292  c-0.838,9.458-19.734,8.42-19.925,8.407c-5.549-0.337-8.141-2.064-8.674-3.44c-0.414-1.066,0.293-2.107,0.958-2.792  c3.779-3.895,12.31-4.128,15.996-2.378c0.822,0.389,1.226,0.817,1.2,1.039C41.209,18.922,40.296,19.798,36.51,20.09z"/><path d="M66.014,37.294c1.161,0,2.059,0.469,4.722,1.949c0.564,0.313,1.181,0.656,1.864,1.027c1.305,0.707,3.2,1.596,5.096,2.446  c-0.31,0.322-0.577,0.626-0.81,0.894c-1.827-1.052-3.669-1.604-5.373-1.604c-3.144,0-5.626,1.891-6.479,4.934  c-0.119,0.424-0.243,0.605-0.275,0.633c-0.002,0.001-0.179,0.106-0.726,0.106c-0.405,0-0.895-0.058-1.452-0.172  c-0.221-0.045-0.714-0.182-1.19-0.315c-1.819-0.506-4.567-1.271-7.036-1.271c-1.055,0-2,0.139-2.832,0.415  c-1.932-1.271-5.039-3.306-7.326-4.762c0.099-0.019,0.202-0.037,0.31-0.054c4.997-0.795,16.829-3.278,19.141-3.854  C64.661,37.412,65.413,37.294,66.014,37.294 M66.014,33.894c-0.903,0-1.916,0.154-3.19,0.473  c-2.264,0.564-14.012,3.024-18.851,3.794c-4.84,0.77-6.16,3.52-3.74,4.949c2.42,1.43,11.192,7.232,11.192,7.232  c0.6-0.755,1.678-1.023,2.931-1.023c2.718,0,6.26,1.255,7.547,1.518c0.8,0.163,1.507,0.24,2.132,0.24  c2.537,0,3.727-1.269,4.274-3.222c0.467-1.666,1.661-2.452,3.205-2.452c1.275,0,2.789,0.536,4.33,1.555  c0.533,0.353,0.975,0.503,1.364,0.503c2.164,0,2.736-4.633,8.563-4.977c0,0-8.103-3.337-11.55-5.206  C70.187,35.094,68.531,33.894,66.014,33.894L66.014,33.894z"/><text font-family="'Helvetica Neue', Helvetica, Arial-Unicode, Arial, Sans-serif" font-weight="bold" font-size="5px" fill="#000000" y="115" x="0">Created by Roman Zayats</text><text font-family="'Helvetica Neue', Helvetica, Arial-Unicode, Arial, Sans-serif" font-weight="bold" font-size="5px" fill="#000000" y="120" x="0">from the Noun Project</text></svg>