<svg viewBox="9.324324324324325 -2.9800000000000004 81.35135135135134 108.27000000000001" version="1.1" xmlns="http://www.w3.org/2000/svg" style="max-height: 500px" width="81.35135135135134" height="108.27000000000001">
 <path fill-rule="evenodd" d="m27.438 43.188h-0.875c-0.86328 0-1.5625 0.69922-1.5625 1.5625v5.25c0 0.53906 0.27344 1.0117 0.6875 1.293v39.895c0 1.0938 0.43359 2.1445 1.2109 2.9141 0.77344 0.77344 1.8203 1.2109 2.9141 1.2109h40.375c1.0938 0 2.1445-0.43359 2.9141-1.2109 0.77344-0.77344 1.2109-1.8203 1.2109-2.9141v-39.895c0.41406-0.28125 0.6875-0.75781 0.6875-1.293v-5.25c0-0.86328-0.69922-1.5625-1.5625-1.5625h-0.875v-35.664c0-0.75-0.30078-1.4727-0.83203-2.0039s-1.2539-0.83203-2.0039-0.83203h-39.457c-0.75 0-1.4727 0.30078-2.0039 0.83203s-0.83203 1.2539-0.83203 2.0039v35.664zm1.375 8.375v39.625c0 0.26562 0.10547 0.51953 0.29297 0.70703s0.44141 0.29297 0.70703 0.29297h40.375c0.26562 0 0.51953-0.10547 0.70703-0.29297s0.29297-0.44141 0.29297-0.70703v-39.625h-0.003906l-5.793 9.3828c-0.37891 0.61328-1.125 0.88672-1.8086 0.66406l-31.016-10.051h-3.7539zm21.188 11.93c-1.9141-1-4.25-1.3477-6.5547-0.78906-4.7422 1.1445-7.4688 5.5977-6.1992 9.8672 0.84375 2.8281 5.0234 7.3594 8.2227 10.414 1.9648 1.8789 3.5156 3.2031 3.5156 3.2031 0.58594 0.5 1.4453 0.5 2.0312 0 0 0 1.5508-1.3242 3.5156-3.2031 3.1992-3.0547 7.3789-7.5859 8.2227-10.414 1.2695-4.2695-1.457-8.7227-6.1992-9.8672-2.3047-0.55469-4.6406-0.21094-6.5547 0.78906zm-0.88281 3.1094c0.53125 0.36328 1.2305 0.36328 1.7617 0 1.3594-0.92578 3.1641-1.2891 4.9375-0.86328 2.8984 0.69922 4.7148 3.3281 3.9375 5.9375-0.27344 0.92188-1.0234 2.0391-1.9531 3.2266-1.5703 2.0039-3.6758 4.1406-5.4297 5.8203-0.92969 0.89062-1.7656 1.6484-2.3711 2.1953-0.60938-0.54297-1.4414-1.3047-2.3711-2.1953-1.7578-1.6797-3.8633-3.8164-5.4297-5.8203-0.92969-1.1875-1.6797-2.3047-1.9531-3.2266-0.77734-2.6094 1.0391-5.2383 3.9375-5.9375 1.7734-0.42969 3.5781-0.0625 4.9375 0.86328zm21.891-20.289h-42.883v2.125h4.6875l0.089844 0.003906 0.09375 0.007813 0.089844 0.015625 0.085937 0.019531 0.074219 0.019531 0.042968 0.011719s30.086 9.75 30.086 9.75l4.1328-6.6992h-17.512c-0.86328 0-1.5625-0.69922-1.5625-1.5625 0-0.86328 0.69922-1.5625 1.5625-1.5625h21.875v-2.125h-0.86719zm-1.5703-3.125h-38.875v-35.375h38.875zm-11.039-12.625h4.0391v5.4375c0 0.86328 0.69922 1.5625 1.5625 1.5625s1.5625-0.69922 1.5625-1.5625v-7c0-0.86328-0.69922-1.5625-1.5625-1.5625h-5.6016c-0.86328 0-1.5625 0.69922-1.5625 1.5625s0.69922 1.5625 1.5625 1.5625zm-11.199 0h4.0391v5.4375c0 0.86328 0.69922 1.5625 1.5625 1.5625s1.5625-0.69922 1.5625-1.5625v-7c0-0.86328-0.69922-1.5625-1.5625-1.5625h-5.6016c-0.86328 0-1.5625 0.69922-1.5625 1.5625s0.69922 1.5625 1.5625 1.5625zm-11.199 0h4.0391v5.4375c0 0.86328 0.69922 1.5625 1.5625 1.5625 0.86328 0 1.5625-0.69922 1.5625-1.5625v-7c0-0.86328-0.69922-1.5625-1.5625-1.5625h-5.6016c-0.86328 0-1.5625 0.69922-1.5625 1.5625s0.69922 1.5625 1.5625 1.5625zm11.199-14.875h4.0391v5.4375c0 0.86328 0.69922 1.5625 1.5625 1.5625s1.5625-0.69922 1.5625-1.5625v-7c0-0.86328-0.69922-1.5625-1.5625-1.5625h-5.6016c-0.86328 0-1.5625 0.69922-1.5625 1.5625s0.69922 1.5625 1.5625 1.5625zm11.199 0h4.0391v5.4375c0 0.86328 0.69922 1.5625 1.5625 1.5625s1.5625-0.69922 1.5625-1.5625v-7c0-0.86328-0.69922-1.5625-1.5625-1.5625h-5.6016c-0.86328 0-1.5625 0.69922-1.5625 1.5625s0.69922 1.5625 1.5625 1.5625zm-22.398 0h4.0391v5.4375c0 0.86328 0.69922 1.5625 1.5625 1.5625 0.86328 0 1.5625-0.69922 1.5625-1.5625v-7c0-0.86328-0.69922-1.5625-1.5625-1.5625h-5.6016c-0.86328 0-1.5625 0.69922-1.5625 1.5625s0.69922 1.5625 1.5625 1.5625z"/>
<text fill="#000000" font-family="Arbeit Regular, Helvetica, Arial-Unicode, Arial, Sans-serif" font-weight="bold" font-size="5.0" y="117.5" x="0.0">Created by Harianto</text><text fill="#000000" font-family="Arbeit Regular, Helvetica, Arial-Unicode, Arial, Sans-serif" font-weight="bold" font-size="5.0" y="122.5" x="0.0">from Noun Project</text></svg>