<svg xml:space="preserve" style="max-height: 500px" viewBox="0 0 66.24 64.32000000000001" y="0px" x="0px" version="1.1" xmlns:xlink="http://www.w3.org/1999/xlink" xmlns="http://www.w3.org/2000/svg" width="66.24" height="64.32000000000001"><path d="M59.951,42C59.486,36.037,54.908,31.087,49,30.165V6c0-2.757-2.243-5-5-5c-1.641,0-3.088,0.806-4,2.031  C39.088,1.806,37.641,1,36,1s-3.088,0.806-4,2.031C31.088,1.806,29.641,1,28,1s-3.088,0.806-4,2.031C23.088,1.806,21.641,1,20,1  c-2.757,0-5,2.243-5,5v20.165C9.092,27.087,4.514,32.037,4.049,38H1v1c0,7.168,5.832,13,13,13h1v6c0,2.757,2.243,5,5,5  c1.641,0,3.088-0.806,4-2.031C24.912,62.194,26.359,63,28,63s3.088-0.806,4-2.031C32.912,62.194,34.359,63,36,63  s3.088-0.806,4-2.031C40.912,62.194,42.359,63,44,63c2.757,0,5-2.243,5-5v-2h1c7.168,0,13-5.832,13-13v-1H59.951z M6.064,40H14  c0.334,0,0.668,0.018,1,0.048v4.633L6.064,40z M15,38h-1H7.155L15,33.891V38z M15,28.186v3.447l-8.616,4.513  C7.479,32.126,10.823,28.96,15,28.186z M14,50c-5.476,0-10.021-4.026-10.854-9.271l6.427,3.366l-2.02,1.01l0.895,1.789l3.31-1.655  L15,46.938V50H14z M28,61c-1.654,0-3-1.346-3-3v-1c0-0.551,0.448-1,1-1s1,0.449,1,1v1h2v-1c0-1.654-1.346-3-3-3  c-0.352,0-0.686,0.072-1,0.184V25V11h-2v14v29.184C22.686,54.072,22.352,54,22,54c-1.654,0-3,1.346-3,3v1h2v-1c0-0.551,0.448-1,1-1  s1,0.449,1,1v1c0,1.654-1.346,3-3,3s-3-1.346-3-3V6c0-1.654,1.346-3,3-3s3,1.346,3,3v3h2V6c0-1.654,1.346-3,3-3s3,1.346,3,3v52  C31,59.654,29.654,61,28,61z M47,58c0,1.654-1.346,3-3,3s-3-1.346-3-3v-1c0-0.551,0.448-1,1-1s1,0.449,1,1v1h2v-1  c0-1.654-1.346-3-3-3c-0.352,0-0.686,0.072-1,0.184V44h-2v10.184C38.686,54.072,38.352,54,38,54c-1.654,0-3,1.346-3,3v1h2v-1  c0-0.551,0.448-1,1-1s1,0.449,1,1v1c0,1.654-1.346,3-3,3s-3-1.346-3-3V6c0-1.654,1.346-3,3-3s3,1.346,3,3v32v4h2v-4V6  c0-1.654,1.346-3,3-3s3,1.346,3,3V58z M49,48.681v-4.633C49.332,44.018,49.666,44,50,44h7.936L49,48.681z M49,42v-4.109L56.845,42  H50H49z M57.616,40.146L49,35.633v-3.447C53.177,32.96,56.521,36.126,57.616,40.146z M50,54h-1v-3.062l3.243-1.699l3.31,1.655  l0.895-1.789l-2.02-1.01l6.427-3.366C60.021,49.974,55.476,54,50,54z"/><text font-family="'Helvetica Neue', Helvetica, Arial-Unicode, Arial, Sans-serif" font-weight="bold" font-size="5px" fill="#000000" y="79" x="0">Created by Eucalyp</text><text font-family="'Helvetica Neue', Helvetica, Arial-Unicode, Arial, Sans-serif" font-weight="bold" font-size="5px" fill="#000000" y="84" x="0">from the Noun Project</text></svg>