<svg xml:space="preserve" style="max-height: 500px" viewBox="0 0 513.36 498.48" y="0px" x="0px" version="1.1" xmlns:xlink="http://www.w3.org/1999/xlink" xmlns="http://www.w3.org/2000/svg" width="513.36" height="498.48"><g><path d="M496,288v-8c0-47.389-37.654-86.143-84.615-87.929l-2.727-2.727C413.482,174.875,416,159.595,416,144h-16   c0,14.668-2.509,29.023-7.301,42.54c-7.723-5.696-16.003-10.543-24.699-14.474V24c0-13.233-10.767-24-24-24H152   c-13.233,0-24,10.767-24,24v225.352l-60.324-60.324l-5.636,4.974C32.781,219.826,16,257.003,16,296   c0,25.344,6.976,49.086,19.098,69.421C11.803,375.208,0,386.817,0,400v32c0,19.604,25.73,35.548,76.477,47.389   C122.385,490.101,183.3,496,248,496s125.615-5.899,171.523-16.611C470.27,467.548,496,451.604,496,432v-32   c0-17.629-20.892-32.321-62.108-43.731C442.915,338.093,448,317.631,448,296c0-6.138-0.425-12.242-1.237-18.28   C459.071,284.277,473.108,288,488,288H496z M352,166.013c-12.822-3.945-26.288-6.013-40-6.013c-19.952,0-38.913,4.32-56,12.071V144   h24c29.73,0,56.061-14.822,72-37.462V166.013z M144,24c0-4.411,3.589-8,8-8h192c4.411,0,8,3.589,8,8v32c0,39.701-32.299,72-72,72   h-64c-39.701,0-72-32.299-72-72V24z M144,106.538C159.939,129.178,186.27,144,216,144h24v36.675   c-38.405,24.063-64,66.758-64,115.325c0,0.456,0.011,0.911,0.015,1.367L144,265.352V106.538z M64,296   c0-23.479,9.316-45.777,25.785-62.236l45.093,45.093L64.06,299.091C64.025,298.064,64,297.035,64,296z M147.821,291.8l8.379,8.379   l-23.348,81.717c-33.18-7.391-59.357-33.568-66.748-66.748L147.821,291.8z M169.143,313.122l45.093,45.093   C197.778,374.683,175.48,384,152,384c-1.035,0-2.064-0.025-3.091-0.06L169.143,313.122z M67.158,211.138l11.313,11.313   C59.009,241.898,48,268.25,48,296c0,57.346,46.654,104,104,104c27.75,0,54.102-11.01,73.55-30.471l11.313,11.313   C214.422,403.273,183.901,416,152,416c-66.168,0-120-53.832-120-120C32,264.099,44.727,233.578,67.158,211.138z M415.888,463.808   C371.136,474.249,311.512,480,248,480s-123.136-5.751-167.888-16.192C29.503,451.998,16,438.258,16,432v-7.511   c12.685,8.799,32.87,16.458,60.477,22.899C122.385,458.101,183.3,464,248,464s125.615-5.899,171.523-16.611   c27.607-6.442,47.792-14.1,60.477-22.899V432C480,438.258,466.497,451.998,415.888,463.808z M480,400   c0,6.258-13.503,19.998-64.112,31.808C371.136,442.249,311.512,448,248,448s-123.136-5.751-167.888-16.192   C29.503,419.998,16,406.258,16,400c0-4.942,7.567-12.887,28.301-21.055C69.192,411.19,108.209,432,152,432   c28.97,0,56.932-9.268,79.985-26.027C255.111,422.796,283.28,432,312,432c47.455,0,89.304-24.438,113.644-61.383   C468.364,381.869,480,394.266,480,400z M432,296c0,66.168-53.832,120-120,120c-24.337,0-47.382-7.092-67.22-20.581   c3.207-2.991,6.289-6.141,9.219-9.459l4.974-5.636l-65.504-65.504C192.495,308.629,192,302.31,192,296c0-66.168,53.832-120,120-120   c27.147,0,53.206,9.175,74.193,25.69c-3.927,7.707-8.657,15.033-14.143,21.866C369.474,218.947,368,213.644,368,208h-16   c0,26.468,21.533,48,48,48v-16c-6.165,0-11.925-1.757-16.815-4.79c5.821-7.035,10.917-14.552,15.248-22.451   c1.033,1.072,2.042,2.171,3.038,3.285c3.464,18.727,12.876,35.392,26.198,47.957C430.531,274.376,432,285.127,432,296z    M419.814,223.128l14.529,14.529l11.313-11.314l-14.528-14.528c25.809,8.776,45.082,31.816,48.373,59.686   C451.631,268.211,428.591,248.938,419.814,223.128z"/><path d="M198.034,96c2.049,0,4.086-0.285,6.054-0.848l25.842-7.384C234.333,92.807,240.799,96,248,96s13.667-3.193,18.07-8.231   l25.841,7.384c1.969,0.563,4.006,0.848,6.055,0.848C310.116,96,320,86.115,320,73.966v-3.932C320,57.885,310.116,48,297.966,48   c-2.049,0-4.086,0.285-6.054,0.848l-25.842,7.384C261.667,51.193,255.201,48,248,48s-13.667,3.193-18.07,8.231l-25.841-7.384   C202.12,48.285,200.083,48,198.034,48C185.884,48,176,57.885,176,70.034v3.932C176,86.115,185.884,96,198.034,96z M296.309,64.232   c0.539-0.154,1.096-0.232,1.657-0.232c3.327,0,6.034,2.707,6.034,6.034v3.932c0,3.327-2.707,6.034-6.034,6.034   c-0.561,0-1.119-0.078-1.658-0.232l-24.328-6.951C271.988,72.545,272,72.274,272,72s-0.012-0.545-0.021-0.817L296.309,64.232z    M248,64c4.411,0,8,3.589,8,8s-3.589,8-8,8s-8-3.589-8-8S243.589,64,248,64z M192,70.034c0-3.327,2.707-6.034,6.034-6.034   c0.561,0,1.119,0.078,1.658,0.232l24.328,6.951C224.012,71.455,224,71.726,224,72s0.012,0.545,0.021,0.817l-24.329,6.951   c-0.539,0.154-1.096,0.232-1.657,0.232c-3.327,0-6.034-2.707-6.034-6.034V70.034z"/></g><text font-family="'Helvetica Neue', Helvetica, Arial-Unicode, Arial, Sans-serif" font-weight="bold" font-size="5px" fill="#000000" y="511" x="0">Created by Eucalyp</text><text font-family="'Helvetica Neue', Helvetica, Arial-Unicode, Arial, Sans-serif" font-weight="bold" font-size="5px" fill="#000000" y="516" x="0">from the Noun Project</text></svg>