<svg viewBox="-5 -10 111.8918918918919 108.54" version="1.1" xmlns="http://www.w3.org/2000/svg" style="max-height: 500px" width="111.8918918918919" height="108.54">
 <path d="m15.629 52.914c3.75 1.3008 9.7617 3.6836 17.109 7.6641 8.0664 4.3672 14.59 6.8828 18.641 8.2266 0.41797 0.14062 0.85156 0.20703 1.2734 0.20703 1.0586 0 2.0859-0.41797 2.8555-1.207 1.082-1.1016 1.4375-2.6914 0.92969-4.1484-0.082031-0.23438-0.33203-0.94531-0.27734-1.3594 0.074219-0.55469 0.66797-1.3711 1.1953-2.0898 0.90234-1.2344 1.9258-2.6367 1.707-4.2773-0.22266-1.6641-1.582-2.7578-2.7852-3.7227-0.6875-0.55078-1.4648-1.1758-1.6719-1.6719s-0.097657-1.4883 0-2.3633c0.10547-0.98438 0.21875-1.9961 0.042969-2.957l28.809-17.59c0.007813-0.003906 0.015625-0.007812 0.023438-0.015625 1.9531-1.2422 2.5273-3.8438 1.2852-5.7969s-3.8438-2.5273-5.7969-1.2852c-0.003906 0.003906-0.007812 0.003906-0.007812 0.003906l-31.672 20.492c-0.37109-0.36719-0.72656-1.1797-1.0469-1.9062-0.3125-0.70703-0.64453-1.4648-1.0938-2.125l18.266-24.977c0.007813-0.007813 0.011719-0.015625 0.019532-0.023437 0.64453-0.91797 0.89062-2.0352 0.69531-3.1367-0.19531-1.1055-0.80859-2.0664-1.7266-2.7109-0.91797-0.64453-2.0312-0.89062-3.1367-0.69531-1.1055 0.19531-2.0664 0.80859-2.7148 1.7344l-20.273 29.355c-0.54688-0.14453-1.2891-0.68359-1.9492-1.1641-1.2344-0.90234-2.6367-1.9258-4.2773-1.707-1.6641 0.22266-2.7578 1.582-3.7227 2.7852-0.55078 0.6875-1.1758 1.4648-1.6719 1.6719s-1.4883 0.097656-2.3633 0c-1.5352-0.16797-3.2734-0.35547-4.6016 0.66406-1.3164 1.0078-1.582 2.7227-1.8203 4.2305-0.13672 0.88281-0.29297 1.8828-0.63281 2.3242-0.089843 0.11719-0.24219 0.24609-0.44922 0.38281-1.3086 0.84766-2.0078 2.3359-1.8203 3.8789 0.18359 1.5352 1.207 2.8008 2.668 3.3086zm64.898-29.953c0.60547-0.38281 1.4141-0.20313 1.8008 0.40234 0.1875 0.29297 0.25 0.64453 0.17578 0.98438-0.074218 0.33594-0.27344 0.625-0.5625 0.8125l-45.465 27.762-0.65625-1.0312 44.715-28.93zm-21.602-14.129c0.19922-0.28516 0.5-0.47656 0.84375-0.53906 0.34375-0.058594 0.69141 0.015625 0.97656 0.21484 0.28516 0.19922 0.47656 0.5 0.53906 0.84375 0.058594 0.33984-0.015625 0.68359-0.21094 0.96484l-18.238 24.938c-0.72656-0.18359-1.4648-0.13281-2.1836 0.035156l18.273-26.461zm-42.574 39.32c0.49609-0.32031 0.87891-0.66406 1.1758-1.0508 0.78906-1.0273 0.99609-2.3555 1.1953-3.6367 0.14453-0.92578 0.32422-2.082 0.71875-2.3828 0.41016-0.31641 1.5859-0.1875 2.5312-0.082031 1.2812 0.14062 2.6055 0.28516 3.7852-0.20312 1.1797-0.48828 2.0156-1.5273 2.8203-2.5312 0.59375-0.74219 1.3359-1.6602 1.8477-1.7305 0.49219-0.066406 1.4336 0.62109 2.1914 1.1758 1.0508 0.76562 2.1328 1.5586 3.418 1.7266 0.61328 0.082031 1.2266 0.003906 1.8281-0.14844l0.015625 0.011719 0.011719-0.019531c0.60547-0.15625 1.2031-0.38672 1.793-0.61719 0.94531-0.36719 2.0156-0.78516 2.5273-0.57422 0.50781 0.21094 0.97266 1.2617 1.3789 2.1914 0.35547 0.80859 0.72266 1.6367 1.2461 2.3242l-3.6367 2.3516c-0.49609-0.26953-1.0117-0.51172-1.5352-0.72656-6.1328-2.5391-13.188-1.207-17.969 3.4023-0.57422 0.55469-0.58984 1.4688-0.039062 2.043 0.28516 0.29297 0.66406 0.44141 1.043 0.44141 0.36328 0 0.72266-0.13281 1.0039-0.40625 3.8945-3.7539 9.6094-4.8789 14.629-2.9023l-5.3008 3.4297c-0.66797 0.43359-0.86328 1.3203-0.43359 1.9922l2.1914 3.4414c0.27344 0.43359 0.74219 0.66797 1.2227 0.66797 0.25781 0 0.51953-0.070313 0.75391-0.21094l7.6289-4.6602c2.1641 2.9453 3.082 6.6367 2.5234 10.258-0.12109 0.78906 0.41797 1.5273 1.2109 1.6484 0.074219 0.011719 0.14844 0.015625 0.22266 0.015625 0.70313 0 1.3164-0.51172 1.4297-1.2266 0.66406-4.3008-0.39453-8.6836-2.9062-12.211l4.9492-3.0234c-0.023438 0.29687-0.054688 0.60547-0.089844 0.91406-0.14062 1.2812-0.28516 2.6055 0.20312 3.7852 0.48828 1.1797 1.5273 2.0156 2.5312 2.8203 0.74219 0.59375 1.6602 1.3359 1.7305 1.8477 0.066406 0.49219-0.62109 1.4336-1.1758 2.1914-0.76563 1.0508-1.5547 2.1328-1.7266 3.418-0.12891 0.97266 0.15234 1.9531 0.41406 2.6953 0.21094 0.59766-0.11328 1.0117-0.26172 1.1602-0.14844 0.15234-0.55859 0.48047-1.1602 0.28125-2.2148-0.73438-5.1914-1.832-8.7773-3.4062 0.97656-0.625 1.9062-1.4805 2.5859-2.6836 0.39453-0.69531 0.14844-1.5781-0.55078-1.9688-0.69531-0.39453-1.5781-0.14844-1.9727 0.55078-0.63281 1.125-1.7148 1.918-3.4766 2.5352-1.875-0.89453-3.875-1.9062-5.9844-3.0508-2.7227-1.4727-5.2617-2.7305-7.5859-3.8047 0.94531-0.62109 1.8398-1.457 2.5-2.625 0.39453-0.69531 0.14844-1.5781-0.55078-1.9727-0.69531-0.39453-1.5781-0.14844-1.9727 0.55078-0.62891 1.1133-1.6953 1.9023-3.4258 2.5195-2.5781-1.0938-4.7773-1.918-6.5078-2.5195-0.59766-0.20703-0.72266-0.71484-0.74609-0.92188-0.019531-0.16797-0.042969-0.73828 0.52344-1.1055zm69.691 39.035c-0.16406-0.18359-0.66797-0.74609-0.77344-1.1484-0.14453-0.53906 0.09375-1.5234 0.30469-2.3906 0.35938-1.4883 0.76953-3.1719-0.058594-4.6055-0.83984-1.4531-2.5195-1.9414-4-2.375-0.84766-0.24609-1.8047-0.52734-2.1836-0.90625-0.37891-0.37891-0.66016-1.3359-0.90625-2.1836-0.43359-1.4805-0.92188-3.1602-2.375-4-1.4336-0.82812-3.1172-0.42188-4.6055-0.058594-0.86719 0.21094-1.8516 0.44922-2.3906 0.30469-0.49219-0.13281-1.1992-0.80859-1.8203-1.4023-1.125-1.0781-2.4023-2.3008-4.1133-2.3008-1.7109 0-2.9883 1.2227-4.1133 2.3008-0.62109 0.59766-1.3281 1.2734-1.8203 1.4023-0.53906 0.14453-1.5234-0.09375-2.3906-0.30469-1.4883-0.35938-3.1719-0.76953-4.6055 0.058594-1.4531 0.83984-1.9414 2.5195-2.375 4-0.042968 0.14453-0.085937 0.29297-0.12891 0.44141-0.38281-0.11719-0.78906-0.17969-1.2109-0.17969h-28.594c-2.2891 0-4.1523 1.8633-4.1523 4.1523 0 1.8008 1.1484 3.332 2.7539 3.9102 0.36719 5.1289 3.0703 9.7383 7.3867 12.492 0.23047 0.14844 0.50391 0.22656 0.77734 0.22656h15.066c0.27734 0 0.54297-0.078125 0.77734-0.22656 0.78516-0.5 1.5117-1.0586 2.1836-1.6758 2.0703-0.11719 5.0469-0.14844 8.4648-0.058594 0.14453 0.042969 0.28906 0.070313 0.44141 0.070313 0.12109 0 0.24219-0.015625 0.36328-0.046875 3.4297 0.10938 7.2578 0.33984 11.035 0.73047 5.125 0.53125 9.5742 0.71094 13.246 0.71094 2.8633 0 5.2578-0.10938 7.1211-0.24609 1.5391-0.11328 2.8555-1.0703 3.4336-2.5039s0.30078-3.0352-0.73047-4.1875zm-68.168-10.457h28.594c0.69531 0 1.2617 0.56641 1.2617 1.2617 0 0.69531-0.56641 1.2617-1.2617 1.2617h-28.594c-0.69531 0-1.2617-0.56641-1.2617-1.2617 0-0.69531 0.56641-1.2617 1.2617-1.2617zm21.398 14.996h-14.199c-3.2148-2.1953-5.2656-5.6836-5.6758-9.582h25.547c-0.41016 3.8984-2.457 7.3867-5.6758 9.582zm44.816-1.4375c-0.078125 0.19531-0.33203 0.66016-0.96484 0.70313-2.3281 0.16797-5.5 0.29687-9.4102 0.21094 0.66016-0.94922 1.1953-2.0977 1.3633-3.4688 0.097656-0.79297-0.46875-1.5117-1.2617-1.6094-0.79297-0.097656-1.5117 0.46875-1.6094 1.2617-0.15625 1.2812-0.85156 2.4297-2.2422 3.6758-1.7383-0.089844-3.5898-0.22656-5.5469-0.41406 0.74609-1 1.3672-2.2305 1.5508-3.7305 0.097656-0.79297-0.46875-1.5117-1.2617-1.6094s-1.5117 0.46875-1.6094 1.2617c-0.16016 1.3008-0.87109 2.4609-2.3008 3.7305-2.0312-0.17578-4.043-0.30859-5.9727-0.40234 0.62891-0.92969 1.1289-2.0391 1.2891-3.3555 0.097657-0.79297-0.46875-1.5117-1.2617-1.6094-0.79297-0.097656-1.5117 0.46875-1.6094 1.2617-0.15234 1.2461-0.8125 2.3633-2.125 3.5664-2.168-0.054688-4.1641-0.0625-5.8867-0.027344 1.5195-2.2969 2.4414-4.9844 2.6445-7.832 1.6016-0.57422 2.7539-2.1133 2.7539-3.9102 0-0.74219-0.19531-1.4414-0.53906-2.043 0.19531-0.50781 0.35156-1.0352 0.50391-1.5586 0.26562-0.91016 0.59766-2.0469 1.0469-2.3047 0.42969-0.25 1.5664 0.027343 2.4766 0.24609 1.2617 0.30469 2.5664 0.62109 3.8203 0.28906 1.2109-0.32422 2.1602-1.2305 3.0742-2.1094 0.73047-0.70312 1.5625-1.4961 2.1133-1.4961s1.3828 0.79297 2.1133 1.4961c0.91797 0.87891 1.8672 1.7852 3.0742 2.1094 1.2539 0.33594 2.5586 0.019531 3.8203-0.28906 0.91016-0.22266 2.0469-0.49609 2.4766-0.24609 0.44922 0.25781 0.78125 1.3945 1.0469 2.3047 0.35938 1.2383 0.73438 2.5156 1.6367 3.418 0.90234 0.90234 2.1836 1.2773 3.418 1.6367 0.91016 0.26563 2.0469 0.59766 2.3047 1.0469 0.25 0.42969-0.027344 1.5664-0.24609 2.4766-0.30469 1.2617-0.62109 2.5664-0.28906 3.8203 0.25391 0.94922 0.88672 1.7461 1.4141 2.332 0.42188 0.47266 0.28125 0.97656 0.20312 1.1719zm-4.7656-1.9258c0.19141 0.77734-0.28516 1.5586-1.0625 1.75-0.11719 0.027344-0.23047 0.042969-0.34375 0.042969-0.65234 0-1.2422-0.44141-1.4023-1.1016-1.5117-6.1836-7.0195-10.5-13.395-10.5-5.4883 0-10.453 3.25-12.648 8.2852-0.32031 0.73047-1.1719 1.0664-1.9023 0.74609-0.73047-0.32031-1.0664-1.1719-0.74609-1.9023 2.6523-6.0859 8.6602-10.02 15.297-10.02 7.7109 0 14.375 5.2266 16.207 12.707z"/>
<text fill="#000000" font-family="Arbeit Regular, Helvetica, Arial-Unicode, Arial, Sans-serif" font-weight="bold" font-size="5.0" y="117.5" x="0.0">Created by krisna arga muria</text><text fill="#000000" font-family="Arbeit Regular, Helvetica, Arial-Unicode, Arial, Sans-serif" font-weight="bold" font-size="5.0" y="122.5" x="0.0">from Noun Project</text></svg>