<svg style="max-height: 500px" xmlns="http://www.w3.org/2000/svg" version="1.1" viewBox="21.071897139858308 16.70084 58.22723694568356 66.64356000000001" width="58.22723694568356" height="66.64356000000001">
 <g>
  <path d="m74.34 48.164c-0.66406 0.023438-1.3281 0.003907-1.9922 0.003907 1.3984-1.1445 2.457-2.5 3.2148-4.0859 1.6094-3.375 1.8789-6.9844 1.8008-10.645-0.015625-0.66016-0.46875-1.0156-1.1289-0.98047-0.51172 0.027344-1.0234 0.10547-1.5312 0.1875-2.2266 0.37109-4.4688 0.69141-6.6758 1.1523-2.168 0.45312-4.0117 1.5234-5.375 3.3281-1.7695 2.3398-1.8086 5.832-0.039063 8.2773 0.30469 0.42188 0.28516 0.64844-0.066406 1-0.45312 0.44922-0.82422 0.98047-1.2656 1.4375-0.16016 0.16797-0.43359 0.3125-0.65625 0.31641-2.6367 0.023438-5.2773 0.015625-7.9141 0.015625h-0.44531c-0.019531-0.046875-0.035156-0.09375-0.054687-0.14062 0.57031-0.39062 1.1016-0.85156 1.7148-1.1602 1.6562-0.83594 3.3438-1.6016 5.0156-2.4062 0.75391-0.35938 0.91016-0.86328 0.43359-1.5469-0.83594-1.1914-1.8477-2.1836-3.3086-2.6836 0.074219-0.12891 0.13281-0.25 0.21094-0.35938 1.3789-1.9102 1.9805-4.0742 2.1133-6.3906 0.039063-0.67969-0.12891-0.87109-0.79297-0.83203-0.96094 0.054687-1.918 0.14844-2.8984 0.23047 0.039062-0.097656 0.070312-0.18359 0.10938-0.26562 0.95703-2.0234 1.1289-4.1406 0.64062-6.3008-0.69922-3.1055-2.4492-5.6016-4.6562-7.8086-0.58984-0.58984-1.0586-0.54687-1.6484 0.0625-1.293 1.3438-2.4258 2.8086-3.3086 4.457-1.2617 2.3555-1.8555 4.8281-1.2969 7.4883 0.16406 0.78516 0.47656 1.5391 0.73438 2.3477-0.22266-0.019531-0.46484-0.046875-0.70703-0.066406-0.74609-0.050781-1.4922-0.11328-2.2422-0.14062-0.45312-0.015625-0.68359 0.21094-0.66016 0.65625 0.10547 2.2656 0.59375 4.418 1.9336 6.3086 0.13281 0.18359 0.26172 0.375 0.41406 0.59766-1.293 0.47266-2.2539 1.293-3.0742 2.2969-0.85938 1.0547-0.71875 1.5273 0.51562 2.1172 1.6172 0.77344 3.2188 1.5742 4.8086 2.4023 0.51953 0.26953 0.96484 0.67578 1.5312 1.0781-0.1875 0.039063-0.23047 0.054688-0.27344 0.054688-2.9961 0-5.9922 0.003906-8.9883-0.007813-0.14062 0-0.32422-0.058594-0.40625-0.16016-0.53516-0.64453-1.043-1.3086-1.5117-1.8984 0.45312-0.79297 0.96484-1.5117 1.2969-2.3086 0.82812-2 0.17578-4.0938-1.5156-5.0234-0.42578-0.23438-0.92188-0.33594-1.4219-0.50781 0.015625-1.1719-0.41797-2.1875-1.3867-2.9336-0.97656-0.75391-2.0742-0.85156-3.0625-0.50391-0.60156-0.65625-1.0508-1.3477-1.6758-1.793-1.6484-1.1719-3.9648-0.82422-5.25 0.68359-1.3359 1.5664-1.3164 3.8164 0.082032 5.332 0.24609 0.26562 0.25391 0.45312 0.13672 0.76953-0.71484 1.9219 0.17969 3.8945 2.0742 4.6289 0.066406 0.027344 0.125 0.078126 0.19922 0.12891-0.375 1.3672-0.03125 2.5312 1.0625 3.5547-0.45703 0-0.79297-0.007812-1.1289 0-1.8984 0.050782-2.9961 1.0547-3.1289 2.9492-0.074219 1.0547-0.0625 2.1211-0.058593 3.1797 0.007812 3.2383 0.75 6.3086 2.1758 9.2109 2.3281 4.7383 5.832 8.3633 10.445 10.918 1.1016 0.60938 2.2539 1.1289 3.4062 1.6992-0.16016 0.22266-0.34375 0.47266-0.51562 0.73047-0.875 1.2969-0.77734 3.0742 0.23828 4.1602 0.64844 0.69531 1.4688 0.9375 2.4062 0.93359 6.0117-0.011718 12.02-0.007812 18.027-0.011718 0.25 0 0.50391-0.011719 0.74219-0.0625 2.0508-0.44531 3.0547-2.6133 2.1094-4.5859-0.20312-0.42578-0.47656-0.81641-0.72266-1.2344 0.19141-0.078125 0.36328-0.15625 0.53516-0.22656 3.082-1.2188 5.8555-2.9414 8.2344-5.2461 3.7734-3.6523 6.2383-8.0195 7.0547-13.258 0.33984-2.1875 0.35547-4.3867 0.13281-6.5781-0.14062-1.4219-1.3984-2.5977-2.7695-2.5469zm-10.246-9.5195c0.81641-1.2305 1.9531-2.0391 3.3125-2.5547 1.6914-0.64453 3.4766-0.84766 5.25-1.1133 0.89062-0.13281 1.7812-0.24219 2.7617-0.37109-0.054688 0.95312-0.082031 1.8203-0.16406 2.6797-0.22266 2.3477-0.71094 4.625-1.9336 6.6758-0.77344 1.2969-1.7617 2.4102-3.2773 2.8398-1.625 0.45703-3.1016 0.13281-4.4297-1.0273 0.49219-0.55078 0.94922-1.082 1.4336-1.582 0.097656-0.10156 0.30859-0.12109 0.46875-0.12109 0.8125-0.011718 1.6211 0 2.4336-0.007812 0.64062-0.007812 1.1055-0.42188 1.0977-0.95703-0.011719-0.57031-0.39062-0.88672-1.0781-0.89844-0.37109-0.003906-0.74219 0-1.2656 0 0.46484-0.50391 0.82031-0.91016 1.2031-1.293 0.09375-0.09375 0.27344-0.13281 0.41797-0.14062 0.5-0.015626 1 0 1.4961-0.003907 0.6875-0.003906 1.0898-0.29688 1.1055-0.80859 0.015625-0.59766-0.35547-0.92578-1.0664-0.94531-0.10156-0.003906-0.20312-0.015625-0.39453-0.03125 0.35156-0.375 0.64844-0.6875 0.9375-1.0039 0.42578-0.47656 0.43359-0.94141 0.035156-1.3086-0.41797-0.38281-0.85156-0.35547-1.3047 0.14062-0.98047 1.0703-1.9375 2.1602-2.9023 3.2383-0.0625 0.070313-0.11719 0.14453-0.28516 0.19141 0-0.5 0.007813-1.0039 0-1.5039-0.011718-0.57031-0.39453-0.96484-0.92187-0.96875-0.5-0.003906-0.87891 0.37891-0.92188 0.92578-0.011718 0.14063-0.007812 0.28125-0.007812 0.42188 0.003906 0.98437 0.023438 1.9648-0.003906 2.9492-0.007813 0.25391-0.10938 0.54688-0.26562 0.75-0.42578 0.55469-0.90625 1.0664-1.3672 1.6016-1.1836-1.4492-1.5547-3.9531-0.34766-5.7695zm1.207 9.4883h-1.6367c0.23438-0.26953 0.41406-0.47656 0.61719-0.70703 0.31641 0.21875 0.61328 0.42578 1.0195 0.70703zm-8.1328-4.9609c-2.1562 0.79688-4.2266 1.6953-6.0664 3.2305 0.28516-1.5312 1.043-2.6367 2.1094-3.5469 0.046874-0.039063 0.10547-0.066407 0.15234-0.10938 1.2852-1.2148 2.6953-0.71094 3.8047 0.42969zm-0.88281-8.4922c-0.37891 3.4805-2.6055 5.5625-5.2344 7.3555-0.20312-2.1758-0.10938-4.2852 1.6172-5.9609 1.0039-0.97656 2.2188-1.3828 3.6172-1.3945zm-9.1484-9.7422c0.71094-1.5977 1.6953-3.0078 2.8086-4.3711 0.066407 0.019532 0.13672 0.023438 0.16406 0.058594 1.5156 1.7695 2.8438 3.6602 3.3984 5.957 0.65234 2.6953-0.070312 5.1172-1.6523 7.3281-0.23438 0.32812-0.48438 0.65234-0.72656 0.97656-0.015625 0.019531-0.050781 0.019531-0.082031 0.035156 0-2.7969 0-5.5742-0.003906-8.3477 0-0.29688-0.007813-0.59375-0.054688-0.88672-0.078125-0.46875-0.44141-0.78516-0.89062-0.81641-0.45703-0.03125-0.83984 0.22656-0.97656 0.70312-0.0625 0.21875-0.082032 0.46094-0.082032 0.69141 0 2.6992 0.003907 5.3984 0.011719 8.0977v0.45703c-0.039062 0.019532-0.078125 0.042969-0.11719 0.0625-0.48047-0.70703-1.0156-1.3867-1.4336-2.1289-1.418-2.5312-1.5469-5.1406-0.35938-7.8086zm-3.3359 10.012c-0.015625-0.074219-0.007812-0.14844-0.015625-0.27344 1.3359-0.015625 2.4961 0.38281 3.4688 1.2734 1.5742 1.4414 2.0352 3.0547 1.7656 6.1289-0.66797-0.54297-1.2969-1.082-1.9531-1.5859-1.832-1.4141-2.8477-3.3008-3.2695-5.543zm-0.89062 8.2031c0.96875-1.2031 2.3594-1.4336 3.5352-0.58984 1.2852 0.91797 2.1953 2.0977 2.5039 3.8203-1.8867-1.4766-3.8945-2.4688-6.0391-3.2305zm-9.0625-1.75c0.27734-0.47656 0.53516-0.99609 1.2305-0.85547 0.62109 0.12891 1.1602 0.78125 1.1094 1.4922-0.035156 0.50781-0.17188 1.0625-0.43359 1.4922-0.44141 0.72656-0.98828 1.3984-1.5508 2.0352-0.72266 0.81641-1.6836 1.2227-2.7578 1.3242-0.61719 0.058594-1.2461 0.089844-1.8633 0.0625-1.0195-0.046875-1.7305-0.97266-1.4609-1.8359 0.11328-0.37109 0.33984-0.58203 0.73828-0.58203h1.3086c0.35938 0 0.71875-0.015625 1.0742 0.003906 0.55078 0.035157 0.91406-0.21484 1.1758-0.67578 0.47266-0.82422 0.95312-1.6406 1.4297-2.4609zm1.7266 6.7227h-1.25c0.27734-0.20312 0.48047-0.35547 0.71875-0.53516 0.15234 0.15234 0.29688 0.30078 0.53125 0.53516zm-10.824-11.762c-0.011719-1.0195 0.80469-1.875 1.8008-1.8828 1.0898-0.011719 1.9727 0.82812 1.9766 1.875 0.007812 1.0352-0.86719 1.8984-1.9062 1.8906-1.0195-0.007813-1.8594-0.85547-1.8672-1.8828zm1.0156 4.2695c0.082031-0.24219 0.20312-0.33984 0.46875-0.34375 0.65234-0.003906 1.3086-0.039062 1.9609-0.0625 0.5625-0.019531 0.98438-0.29687 1.2617-0.76562 0.32031-0.55078 0.61328-1.1211 0.89453-1.6914 0.38672-0.78125 0.92969-1.1055 1.5742-0.91406 0.66797 0.19922 1.1094 0.99219 0.94531 1.7734-0.070313 0.32812-0.19141 0.66406-0.36328 0.95312-0.46484 0.79297-0.96875 1.5625-1.4492 2.3477-0.28125 0.46094-0.64062 0.72656-1.2227 0.64844-0.36719-0.046875-0.74609-0.007813-1.1211-0.007813-0.51562 0-1.0312 0.019532-1.543-0.003906-0.99609-0.046875-1.707-1.0469-1.4062-1.9336zm-0.76562 12.754c0-0.76172-0.058594-1.5078 0.015625-2.2422 0.0625-0.61328 0.49609-0.85547 1.2422-0.85156 7.9453 0.011719 15.887 0.023437 23.828 0.027343 7.3984 0.003907 14.797 0 22.191-0.003906 0.5625 0 1.1211-0.046875 1.6836-0.039062 0.69141 0.011718 1.0859 0.36719 1.1289 1.0508 0.039062 0.66797 0.007812 1.3359 0.007812 2.0547zm35.082 25.465c-0.054687 0.44141-0.27344 0.76563-0.75 0.83203-0.23047 0.03125-0.46484 0.058594-0.69531 0.058594-2.9023 0.003906-5.8047 0.003906-8.707 0.003906v0.003906c-2.9023 0-5.8047-0.027344-8.707 0.015625-1.1953 0.015625-1.5742-0.86719-1.1367-1.8281 0.37891-0.83594 1.1016-1.1641 1.9961-0.94531 3.4414 0.83203 6.9336 1.0547 10.457 0.82031 1.9961-0.13281 3.9727-0.39453 5.9023-0.93359 0.085938-0.023437 0.1875-0.035156 0.27344-0.015625 0.71875 0.17578 1.4648 1.25 1.3711 1.9844zm14.457-20.02c-1.8555 6.7461-6.1328 11.445-12.367 14.434-4.1406 1.9844-8.5547 2.6133-13.105 2.5-3.8359-0.09375-7.5234-0.85547-11.008-2.4766-5.5977-2.6094-9.6797-6.6836-11.926-12.496-0.59766-1.5469-0.98047-3.1523-1.0898-4.8164-0.007813-0.10937 0-0.21484 0-0.37891h50.102c-0.20312 1.1055-0.32031 2.1914-0.60547 3.2344z"/>
  <path d="m32.207 27.016c-0.78906-0.007813-1.3906 0.62109-1.3828 1.4453 0.007812 0.72656 0.57812 1.2734 1.3281 1.2656 0.73828-0.007812 1.3438-0.60547 1.3477-1.332 0.003906-0.76172-0.57031-1.375-1.2891-1.3828z"/>
  <path d="m35.559 27.371c0.73438-0.003906 1.3555-0.60938 1.3633-1.3164 0.007813-0.76563-0.58203-1.3828-1.3242-1.3867-0.76172-0.007813-1.3008 0.54688-1.3047 1.3281-0.003907 0.79297 0.53906 1.3789 1.2656 1.375z"/>
  <path d="m35.688 28.859c-0.79688-0.003906-1.3477 0.53516-1.3594 1.3359-0.011719 0.74609 0.60938 1.3633 1.3672 1.3516 0.67578-0.011719 1.3047-0.65625 1.3047-1.3359-0.003906-0.75-0.58594-1.3516-1.3086-1.3555z"/>
  <path d="m38.93 29.719c0.67578-0.011719 1.3047-0.65625 1.3047-1.3359-0.003906-0.75-0.58594-1.3516-1.3086-1.3555-0.79688-0.003906-1.3477 0.53516-1.3594 1.3359-0.011718 0.74609 0.60938 1.3633 1.3672 1.3516z"/>
  <path d="m35.586 23.148c0.72656-0.003907 1.3438-0.61719 1.3477-1.3359 0.003906-0.75-0.57422-1.3477-1.3086-1.3555-0.76562-0.007812-1.3242 0.55078-1.3203 1.3203 0.003906 0.78906 0.55078 1.375 1.2812 1.3711z"/>
  <path d="m32.047 25.48c0.73438 0.011719 1.4219-0.62109 1.4219-1.3164 0-0.76953-0.57422-1.3711-1.2969-1.3594-0.79688 0.015624-1.3594 0.57422-1.3516 1.3516 0.003907 0.73828 0.53516 1.3125 1.2266 1.3242z"/>
  <path d="m38.871 25.48c0.71484-0.007813 1.3281-0.59375 1.3359-1.2852 0.007813-0.76562-0.54688-1.3789-1.2695-1.3945-0.74219-0.015625-1.3398 0.5625-1.3477 1.3047-0.007813 0.76953 0.5625 1.3789 1.2812 1.375z"/>
  <path d="m61.359 27.031c-0.78906-0.007812-1.3906 0.62109-1.3828 1.4453 0.007813 0.72656 0.57813 1.2773 1.3281 1.2656 0.73828-0.007813 1.3438-0.60547 1.3477-1.332 0.003906-0.76172-0.57031-1.375-1.2891-1.3828z"/>
  <path d="m64.711 27.387c0.73437-0.003907 1.3555-0.60938 1.3633-1.3164 0.007812-0.76562-0.58203-1.3828-1.3242-1.3867-0.76172-0.007813-1.3008 0.54688-1.3047 1.3281-0.003906 0.79297 0.53906 1.3789 1.2656 1.375z"/>
  <path d="m64.844 28.875c-0.79688-0.003906-1.3477 0.53516-1.3594 1.3359-0.011719 0.74609 0.60938 1.3633 1.3672 1.3516 0.67578-0.011719 1.3047-0.65625 1.3047-1.3359-0.003906-0.75-0.58594-1.3516-1.3086-1.3555z"/>
  <path d="m68.082 29.734c0.67578-0.011719 1.3047-0.65625 1.3047-1.3359-0.003907-0.75-0.58594-1.3516-1.3086-1.3555-0.79688-0.003907-1.3477 0.53516-1.3594 1.3359-0.011719 0.74609 0.60938 1.3633 1.3672 1.3516z"/>
  <path d="m64.738 23.168c0.72656-0.003907 1.3438-0.61719 1.3477-1.3359 0.003906-0.75-0.57422-1.3477-1.3086-1.3555-0.76562-0.007812-1.3242 0.55078-1.3203 1.3203 0.003907 0.78906 0.55078 1.375 1.2812 1.3711z"/>
  <path d="m61.203 25.496c0.73438 0.011718 1.4219-0.62109 1.4219-1.3164 0-0.76953-0.57422-1.3711-1.2969-1.3594-0.79688 0.015626-1.3594 0.57422-1.3516 1.3516 0.003907 0.73828 0.53516 1.3125 1.2266 1.3242z"/>
  <path d="m68.023 25.496c0.71484-0.007813 1.3281-0.59375 1.3359-1.2852 0.007813-0.76563-0.54688-1.3789-1.2695-1.3945-0.74219-0.015625-1.3398 0.5625-1.3477 1.3047-0.007813 0.76953 0.5625 1.3789 1.2812 1.375z"/>
 </g>
<text x="0.0" y="117.5" font-size="5.0" font-weight="bold" font-family="Arbeit Regular, Helvetica, Arial-Unicode, Arial, Sans-serif" fill="#000000">Created by IconAsique</text><text x="0.0" y="122.5" font-size="5.0" font-weight="bold" font-family="Arbeit Regular, Helvetica, Arial-Unicode, Arial, Sans-serif" fill="#000000">from Noun Project</text></svg>