<svg xml:space="preserve" style="max-height: 500px" viewBox="0 0 513.36 498.48" y="0px" x="0px" version="1.1" xmlns:xlink="http://www.w3.org/1999/xlink" xmlns="http://www.w3.org/2000/svg" width="513.36" height="498.48"><path d="M461.333,368c-10.854,0-21.221,5.184-27.733,13.867L432,384c-5.83,7.774-14.343,13.101-23.714,15.106  c14.347-21.686,19.191-48.132,13.277-73.765c-1.765-7.641-6.122-14.528-12.271-19.392l-3.121-2.47  c-14.989-11.858-36.836-9.309-48.696,5.682c-6.732,8.512-9.1,19.859-6.33,30.354l0.681,2.578c2.293,8.688,1.61,17.703-1.866,25.846  C338.187,367.328,327.104,361.473,320,352V161.97c0-33.099-22.427-61.822-54.537-69.851L256,89.754V64c13.233,0,24-10.766,24-24V24  c0-13.234-10.767-24-24-24H64C50.767,0,40,10.766,40,24v16c0,13.234,10.767,24,24,24v25.754l-9.463,2.365  C22.427,100.147,0,128.871,0,161.97V376c0,39.701,32.299,72,72,72h176c20.484,0,39.521-8.46,53.146-23.416  c6.137,2.576,12.55,4.52,19.132,5.767c-0.177,1.415-0.278,2.853-0.278,4.316v3.979c0,7.843,2.698,15.534,7.597,21.656  C345.745,482.988,372.817,496,401.871,496H416c17.645,0,32-14.355,32-32c0-2.06-0.203-4.072-0.577-6.024  c16.09-5.988,30.143-16.127,40.979-29.674c4.899-6.123,7.598-13.813,7.598-21.656v-3.979C496,383.551,480.448,368,461.333,368z   M370.023,319.087c6.386-8.073,18.147-9.444,26.221-3.06l3.121,2.47c3.312,2.62,5.658,6.329,6.608,10.442  c5.434,23.547-0.049,47.922-15.042,66.875l-6.581,8.319c-0.23,0.129-0.456,0.265-0.683,0.4C383.879,403.042,384,401.53,384,400  c0-12.677-7.41-23.656-18.126-28.833c3.81-10.585,4.351-22.062,1.422-33.158l-0.681-2.578  C365.124,329.78,366.398,323.67,370.023,319.087z M56,40V24c0-4.411,3.589-8,8-8h192c4.411,0,8,3.589,8,8v16c0,4.411-3.589,8-8,8H64  C59.589,48,56,44.411,56,40z M248,432H72c-30.879,0-56-25.122-56-56V161.97c0-25.744,17.443-48.084,42.418-54.328L80,102.246V64h160  v38.246l21.582,5.396C286.557,113.886,304,136.226,304,161.97v176.726c-4.184-1.749-8.713-2.696-13.333-2.696  c-0.898,0-1.786,0.045-2.667,0.113V161.97c0-18.388-12.459-34.346-30.299-38.806l-3.881,15.522  c10.704,2.676,18.18,12.251,18.18,23.284v146.335c-4.711-2.732-10.174-4.305-16-4.305c-12.523,0-24.486-5.981-32-16l-1.6-2.134  c-1.559-2.078-3.344-3.95-5.298-5.604c3.748-1.601,7.411-3.424,10.961-5.516l12.174-7.171c15.202-8.956,20.286-28.61,11.331-43.814  c-8.956-15.204-28.61-20.284-43.813-11.331c-7.503,4.42-16.23,6.248-24.837,5.267c-2.222-2.282-4.776-4.239-7.59-5.781  c15.049-8.499,27.67-21.025,36.268-36.411c3.826-6.847,5.223-14.877,3.934-22.611l-0.654-3.925  c-1.522-9.134-6.511-17.128-14.046-22.51c-7.533-5.381-16.709-7.507-25.849-5.985c-10.706,1.784-20.08,8.602-25.076,18.237  l-1.227,2.367c-5.766,11.118-16.582,18.984-28.936,21.043c-8.884,1.481-16.554,6.535-21.407,13.885  C79.372,176.188,64,191.663,64,210.667v3.979c0,7.843,2.698,15.534,7.597,21.656c12.52,15.651,29.671,26.85,48.724,32.18  C115.235,270.759,109.678,272,104,272c-12.213,0-23.003,6.851-28.383,17.203c-2.897-0.78-5.902-1.203-8.95-1.203  c-6.87,0-13.274,2.017-18.667,5.478V161.97c0-11.033,7.476-20.607,18.179-23.283l-3.881-15.522C44.459,127.624,32,143.582,32,161.97  v160.697v3.979V376c0,22.056,17.944,40,40,40h72h14.129H248c9.456,0,18.365-3.263,25.457-9.149  c4.016,3.687,8.339,7.011,12.905,9.949C276.05,426.543,262.494,432,248,432z M147.376,205.919  c-7.635-2.554-14.461-7.365-19.376-13.919l-1.6-2.134c-2.87-3.827-6.49-6.971-10.569-9.294c1.92-1.343,4.142-2.267,6.541-2.667  c17.294-2.882,32.438-13.896,40.509-29.46l1.228-2.368c2.689-5.188,7.737-8.858,13.502-9.819c4.922-0.818,9.862,0.325,13.918,3.223  c4.058,2.898,6.743,7.203,7.563,12.121l0.655,3.926c0.694,4.164-0.058,8.487-2.118,12.174  C186.909,186.883,168.667,200.705,147.376,205.919z M98.667,192c5.844,0,11.427,2.791,14.933,7.466l1.6,2.134  C125.72,215.626,142.468,224,160,224c8.822,0,16,7.178,16,16c0,0.555-0.038,1.106-0.095,1.654  c-3.335-1.071-6.886-1.654-10.572-1.654c-10.854,0-21.221,5.184-27.733,13.867l-1.168,1.557  c-20.494-2.469-39.394-12.934-52.342-29.118c-2.638-3.296-4.09-7.438-4.09-11.66v-3.979C80,200.374,88.374,192,98.667,192z   M190.202,250.55c1.179-3.373,1.798-6.934,1.798-10.55c0-2.116-0.212-4.183-0.605-6.186c8.578-0.606,16.969-3.171,24.481-7.597  c7.601-4.477,17.429-1.937,21.906,5.665c4.478,7.602,1.936,17.43-5.666,21.907l-12.174,7.171  c-6.403,3.772-13.222,6.575-20.346,8.413C198.479,262.114,195.096,255.595,190.202,250.55z M148.801,265.599l1.6-2.133  c3.506-4.675,9.089-7.466,14.934-7.466c9.967,0,18.111,7.859,18.617,17.703C170.066,278.228,160,291.291,160,306.667v1.328  c-10.885,6.788-23.266,10.841-36.093,11.779C112.908,318.627,102.69,312.92,96,304l-1.6-2.134c-1.393-1.857-2.972-3.544-4.685-5.064  C92.368,291.518,97.814,288,104,288C121.532,288,138.28,279.626,148.801,265.599z M159.832,348.709  c-0.739-7.198-3.879-13.69-8.596-18.676c4.031-1.497,7.961-3.267,11.764-5.301c1.198,2.698,2.738,5.247,4.597,7.57  c1.854,2.318,3.832,4.547,5.901,6.688C169.66,343.173,164.987,346.481,159.832,348.709z M81.6,311.466l1.6,2.134  C93.72,327.626,110.468,336,128,336c8.822,0,16,7.178,16,16c-11.818,0-22.153,6.445-27.695,16h-2.434  c-24.166,0-46.685-10.823-61.781-29.694c-2.638-3.296-4.09-7.438-4.09-11.66v-3.979C48,312.374,56.374,304,66.667,304  C72.511,304,78.094,306.791,81.6,311.466z M48,357.506c17.167,16.535,39.84,26.002,64.001,26.468c0,0.009-0.001,0.017-0.001,0.026  c0,5.827,1.573,11.289,4.305,16H72c-13.233,0-24-10.766-24-24V357.506z M128,384c0-8.822,7.178-16,16-16  c17.532,0,34.28-8.374,44.801-22.401l1.6-2.133c3.507-4.675,9.089-7.466,14.933-7.466c10.293,0,18.667,8.374,18.667,18.667v3.979  c0,4.223-1.452,8.364-4.091,11.661C204.813,389.177,182.295,400,158.129,400H144C135.178,400,128,392.822,128,384z M232.402,380.302  c2.916-3.644,5.045-7.846,6.297-12.302h17.414c-0.067,0.881-0.113,1.768-0.113,2.667v3.979c0,7.304,2.343,14.475,6.621,20.371  C258.475,398.225,253.385,400,248,400h-37.001C218.987,394.646,226.214,388.038,232.402,380.302z M261.478,352h-21.591  c-1.367-17.873-16.337-32-34.554-32c-7.647,0-15.046,2.582-21.032,7.14c-1.467-1.557-2.878-3.167-4.211-4.833  c-2.638-3.296-4.09-7.438-4.09-11.66v-3.979c0-10.293,8.374-18.667,18.667-18.667c5.844,0,11.427,2.791,14.933,7.466l1.6,2.134  C221.72,311.626,238.468,320,256,320c8.822,0,16,7.178,16,16v5.478C267.781,344.186,264.186,347.78,261.478,352z M326.073,415.094  c-19.561-2.967-37.567-13.269-49.983-28.788c-2.638-3.296-4.09-7.438-4.09-11.66v-3.979c0-10.293,8.374-18.667,18.667-18.667  c5.844,0,11.427,2.791,14.933,7.466l1.6,2.134C317.72,375.626,334.468,384,352,384c8.822,0,16,7.178,16,16  c0,0.883-0.075,1.755-0.215,2.611c-4.125-1.692-8.577-2.611-13.118-2.611C342.809,400,332.327,405.987,326.073,415.094z M416,480  h-14.129c-24.166,0-46.685-10.823-61.781-29.694c-2.638-3.296-4.09-7.438-4.09-11.66v-3.979c0-10.293,8.374-18.667,18.667-18.667  c5.844,0,11.426,2.791,14.933,7.466l1.6,2.134C381.72,439.626,398.468,448,416,448c8.822,0,16,7.178,16,16S424.822,480,416,480z   M480,406.646c0,4.223-1.452,8.364-4.091,11.661c-9.307,11.634-21.462,20.248-35.392,25.158C434.642,436.462,425.834,432,416,432  c-10.286,0-20.189-4.041-27.564-11.034C391.416,417.861,395.583,416,400,416c17.532,0,34.28-8.374,44.801-22.401l1.6-2.133  c3.506-4.675,9.089-7.466,14.933-7.466c10.293,0,18.667,8.374,18.667,18.667V406.646z"/><text font-family="'Helvetica Neue', Helvetica, Arial-Unicode, Arial, Sans-serif" font-weight="bold" font-size="5px" fill="#000000" y="511" x="0">Created by Eucalyp</text><text font-family="'Helvetica Neue', Helvetica, Arial-Unicode, Arial, Sans-serif" font-weight="bold" font-size="5px" fill="#000000" y="516" x="0">from the Noun Project</text></svg>