<svg xml:space="preserve" viewBox="0 0 529.92 514.5600000000001" y="0px" x="0px" version="1.1" xmlns:xlink="http://www.w3.org/1999/xlink" xmlns="http://www.w3.org/2000/svg" style="max-height: 500px" width="529.92" height="514.5600000000001"><path d="M360,312c22.056,0,40-17.944,40-40c0-18.896-27.578-66.675-33.106-76.061c-1.438-2.44-4.061-3.939-6.894-3.939  s-5.455,1.499-6.894,3.939C347.578,205.325,320,253.104,320,272C320,294.056,337.944,312,360,312z M359.998,216.184  C371.562,237.198,384,263.134,384,272c0,13.233-10.767,24-24,24s-24-10.767-24-24C336,262.729,348.806,236.494,359.998,216.184z   M456,320c-8.998,0-17.31,2.988-24,8.022V184c0-13.233-10.767-24-24-24c-4.411,0-8-3.589-8-8v-40c4.418,0,8-3.582,8-8V72  c0-4.418-3.582-8-8-8V24c0-4.418-3.582-8-8-8h-64c-4.418,0-8,3.582-8,8v40c-4.418,0-8,3.582-8,8v32c0,4.418,3.582,8,8,8v40  c0,4.411-3.589,8-8,8c-13.233,0-24,10.767-24,24v145.598c-1.306-0.476-2.639-0.931-4.024-1.343  c-14.85-4.417-31.278-4.39-46.261,0.079c-1.925,0.574-3.843,1.224-5.746,1.943c0.021-0.759,0.032-1.519,0.032-2.277  c0-35.452-21.882-64-40-64c-16.648,0-36.46,24.109-39.568,55.524c-31.414-12.385-64.553-3.236-71.764,13.274  c-3.795,8.688-0.801,21.952,8.009,35.48c3.721,5.714,8.217,11.022,13.222,15.722h-6.706C91.479,365.765,75.317,352,56,352  c-22.056,0-40,17.944-40,40v16c0,7.971,1.685,15.552,4.7,22.422C17.593,438.586,16,447.18,16,456c0,4.418,3.582,8,8,8s8-3.582,8-8  c0-2.616,0.448-5.18,1.263-7.617C43.331,458.044,56.979,464,72,464h34.463c1.703,5.936,4.523,10.856,8.374,14.11  c4.01,3.389,9.743,5.095,16.653,5.095c5.748,0,12.311-1.181,19.371-3.556c10.057-3.382,19.804-8.853,28.146-15.649h23.194  c7.135,8.023,15.433,14.734,24.188,19.465c7.958,4.301,15.515,6.481,22.029,6.481c4.577-0.001,8.64-1.077,11.963-3.253  c6.237-4.082,9.834-12.124,10.383-22.693H288v8c0,13.233,10.767,24,24,24h96c13.233,0,24-10.767,24-24v-8h24  c13.233,0,24,10.767,24,24c0,4.418,3.582,8,8,8s8-3.582,8-8c0-0.011,0-0.021,0-0.032c-0.01-25.511-13.368-47.945-33.444-60.728  C482.23,418.545,496,398.856,496,376v-16C496,337.944,478.056,320,456,320z M432,368h8c4.411,0,8,3.589,8,8s-3.589,8-8,8h-8V368z   M328,96V80h64v16H328z M336,32h48v32h-48V32z M304,184c0-4.411,3.589-8,8-8c13.233,0,24-10.767,24-24v-40h48v40  c0,13.233,10.767,24,24,24c4.411,0,8,3.589,8,8v200H304v-7.783c7.12-9.632,9.898-19.021,7.667-26.503  c-1.186-3.976-3.835-7.748-7.667-11.099V184z M242.286,343.666c11.865-3.537,25.397-3.564,37.127-0.075  c10.978,3.266,16.204,8.293,16.92,10.695c0.552,1.85-1.074,8.604-9.621,17.678c-8.769,9.307-20.795,16.731-32.998,20.37  c-4.184,1.247-8.554,2.046-13,2.424c-7.654-7.401-16.254-13.328-24.753-16.936c0.024-0.603,0.039-1.209,0.039-1.822  c0-5.716-1.073-11.033-2.966-15.632C221.292,352.851,231.816,346.788,242.286,343.666z M192,424c-13.009,0-24-7.327-24-16  c0-3.831,2.245-7.579,6.086-10.496C178.449,403.982,184.807,408,192,408s13.551-4.018,17.914-10.496  C213.755,400.421,216,404.17,216,408C216,416.673,205.009,424,192,424z M200,376c0,9.767-4.738,16-8,16s-8-6.233-8-16s4.738-16,8-16  S200,366.233,200,376z M192,280c7.159,0,24,20.27,24,48c0,3.564-0.282,7.147-0.835,10.692c-4.218,2.67-8.214,5.675-11.899,8.938  c-3.342-2.32-7.167-3.63-11.266-3.63c-1.957,0-3.85,0.306-5.661,0.869c-5.301-6.607-11.524-12.396-18.336-17.065  C168.084,300.175,184.858,280,192,280z M95.331,339.202c2.979-6.819,28.347-14.841,53.467-3.871  c9.311,4.066,18.194,11.043,25.046,19.539C170.191,360.469,168,367.828,168,376c0,2.091,0.149,4.125,0.423,6.094  c-3.817,2.218-7.065,4.943-9.644,8.026c-6.756,0.156-16.742-0.719-27.577-5.451c-11.33-4.948-21.942-14.104-29.116-25.122  C95.013,348.685,94.48,341.149,95.331,339.202z M88,400h36.404c-0.863,0.929-1.702,1.875-2.515,2.837  c-3.492,4.132-6.418,8.573-8.822,13.163H80h-8c-4.411,0-8-3.589-8-8s3.589-8,8-8H88z M32,408v-16c0-13.233,10.766-24,24-24  c10.43,0,19.327,6.688,22.629,16H72c-13.234,0-24,10.767-24,24s10.766,24,24,24h8h26.885c-1.415,5.442-2.17,10.853-2.3,16H72  C49.944,448,32,430.056,32,408z M145.761,464.484c-12.031,4.047-19.073,2.693-20.598,1.405c-5.991-5.062-8.928-31.57,8.948-52.727  c2.53-2.995,5.379-5.806,8.514-8.405c3.133,0.579,6.293,0.981,9.462,1.189C152.033,406.627,152,407.312,152,408  c0,14.597,12.286,26.935,29.017,30.763c-0.983,1.401-2.021,2.764-3.127,4.073C169.756,452.463,158.046,460.353,145.761,464.484z   M251.619,473.307c-1.815,1.185-8.203,1.173-17.624-3.918c-10.262-5.546-20.213-14.938-27.302-25.77  c-1.065-1.628-2.062-3.309-3.022-5.012c16.145-3.948,27.973-15.865,28.308-29.993c3.256,3.425,6.421,7.329,9.326,11.768  C257.751,445.51,256.531,470.092,251.619,473.307z M416,472c0,4.411-3.589,8-8,8h-96c-4.411,0-8-3.589-8-8v-8h112V472z M456,448  H269.547c-0.99-5.274-2.522-10.671-4.531-16H424c15.628,0,29.78,6.435,39.948,16.793C461.379,448.273,458.721,448,456,448z M480,376  c0,22.056-17.944,40-40,40H257.394c-0.867-1.485-1.764-2.95-2.7-4.381c-0.567-0.866-1.157-1.72-1.754-2.569  c1.802-0.403,3.588-0.859,5.346-1.384c6.117-1.823,12.192-4.44,17.971-7.666H440c13.233,0,24-10.767,24-24s-10.767-24-24-24h-6.629  c3.302-9.312,12.199-16,22.629-16c13.233,0,24,10.767,24,24V376z"/><text font-family="'Helvetica Neue', Helvetica, Arial-Unicode, Arial, Sans-serif" font-weight="bold" font-size="5px" fill="#000000" y="527" x="0">Created by iconixar</text><text font-family="'Helvetica Neue', Helvetica, Arial-Unicode, Arial, Sans-serif" font-weight="bold" font-size="5px" fill="#000000" y="532" x="0">from the Noun Project</text></svg>