<?xml version="1.0" encoding="UTF-8" standalone="no" ?>
<!DOCTYPE svg PUBLIC "-//W3C//DTD SVG 1.1//EN" "http://www.w3.org/Graphics/SVG/1.1/DTD/svg11.dtd">
<svg xmlns="http://www.w3.org/2000/svg" xmlns:xlink="http://www.w3.org/1999/xlink" version="1.1" width="1080" height="1080" viewBox="0 0 1080 1080" xml:space="preserve">
<desc>Created with Fabric.js 5.2.4</desc>
<defs>
</defs>
<g transform="matrix(1 0 0 1 540 540)" id="f67b68d2-c985-41e9-a93c-0341445c3340"  >
<rect style="stroke: none; stroke-width: 1; stroke-dasharray: none; stroke-linecap: butt; stroke-dashoffset: 0; stroke-linejoin: miter; stroke-miterlimit: 4; fill: rgb(255,255,255); fill-rule: nonzero; opacity: 1; visibility: hidden;" vector-effect="non-scaling-stroke"  x="-540" y="-540" rx="0" ry="0" width="1080" height="1080" />
</g>
<g transform="matrix(1 0 0 1 540 540)" id="bd67194a-bc5b-4c38-b88c-f13d28ef73bf"  >
</g>
<g transform="matrix(1 0 0 1 591.85 516.75)"  >
<path style="stroke: none; stroke-width: 1; stroke-dasharray: none; stroke-linecap: butt; stroke-dashoffset: 0; stroke-linejoin: miter; stroke-miterlimit: 4; fill: rgb(0,0,0); fill-rule: nonzero; opacity: 1;" vector-effect="non-scaling-stroke"  transform=" translate(-760, -511.5)" d="M 755 253 L 754 254 L 742 254 L 741 255 L 733 255 L 732 256 L 725 256 L 724 257 L 720 257 L 719 258 L 715 258 L 714 259 L 711 259 L 710 260 L 707 260 L 706 261 L 703 261 L 702 262 L 700 262 L 699 263 L 697 263 L 696 264 L 694 264 L 693 265 L 691 265 L 690 266 L 688 266 L 687 267 L 685 267 L 684 268 L 683 268 L 682 269 L 680 269 L 679 270 L 678 270 L 677 271 L 675 271 L 674 272 L 673 272 L 672 273 L 671 273 L 670 274 L 669 274 L 668 275 L 667 275 L 666 276 L 665 276 L 664 277 L 663 277 L 662 278 L 661 278 L 660 279 L 659 279 L 658 280 L 657 280 L 656 281 L 655 281 L 653 283 L 652 283 L 651 284 L 650 284 L 648 286 L 647 286 L 645 288 L 644 288 L 642 290 L 641 290 L 639 292 L 638 292 L 635 295 L 634 295 L 632 297 L 631 297 L 627 301 L 626 301 L 620 307 L 619 307 L 602 324 L 602 325 L 596 331 L 596 332 L 593 335 L 593 336 L 589 340 L 589 341 L 586 344 L 586 345 L 584 347 L 584 348 L 583 349 L 583 350 L 581 352 L 581 353 L 579 355 L 579 356 L 578 357 L 578 358 L 577 359 L 577 360 L 575 362 L 575 363 L 574 364 L 574 365 L 573 366 L 573 367 L 572 368 L 572 369 L 571 370 L 571 371 L 570 372 L 570 373 L 569 374 L 569 375 L 568 376 L 568 378 L 567 379 L 567 380 L 566 381 L 566 382 L 565 383 L 565 385 L 564 386 L 564 388 L 563 389 L 563 390 L 562 391 L 562 393 L 561 394 L 561 396 L 560 397 L 560 400 L 559 401 L 559 404 L 558 405 L 558 409 L 556 411 L 555 411 L 554 412 L 552 412 L 551 413 L 550 413 L 549 414 L 548 414 L 547 415 L 546 415 L 545 416 L 544 416 L 542 418 L 541 418 L 540 419 L 539 419 L 537 421 L 536 421 L 533 424 L 532 424 L 527 429 L 526 429 L 519 436 L 519 437 L 514 442 L 514 443 L 511 446 L 511 447 L 509 449 L 509 450 L 507 452 L 507 453 L 506 454 L 506 455 L 504 457 L 504 458 L 503 459 L 503 460 L 502 461 L 502 462 L 501 463 L 501 465 L 500 466 L 500 468 L 499 469 L 499 470 L 498 471 L 498 474 L 497 475 L 497 477 L 496 478 L 496 482 L 495 483 L 495 489 L 494 490 L 494 515 L 495 516 L 495 521 L 496 522 L 496 525 L 497 526 L 497 529 L 498 530 L 498 532 L 499 533 L 499 535 L 500 536 L 500 537 L 501 538 L 501 540 L 502 541 L 502 542 L 503 543 L 503 544 L 504 545 L 504 546 L 505 547 L 505 548 L 506 549 L 506 550 L 508 552 L 508 553 L 510 555 L 510 556 L 514 560 L 514 561 L 523 570 L 524 570 L 529 575 L 530 575 L 532 577 L 533 577 L 535 579 L 536 579 L 538 581 L 539 581 L 540 582 L 541 582 L 542 583 L 544 583 L 545 584 L 546 584 L 547 585 L 548 585 L 549 586 L 552 586 L 553 587 L 555 587 L 556 588 L 558 588 L 559 589 L 563 589 L 565 591 L 565 594 L 566 595 L 566 599 L 567 600 L 567 604 L 568 605 L 568 609 L 569 610 L 569 614 L 570 615 L 570 620 L 571 621 L 571 625 L 572 626 L 572 630 L 573 631 L 573 634 L 574 635 L 574 639 L 575 640 L 575 645 L 576 646 L 576 650 L 577 651 L 577 655 L 578 656 L 578 660 L 579 661 L 579 665 L 580 666 L 580 670 L 581 671 L 581 675 L 582 676 L 582 681 L 583 682 L 583 685 L 584 686 L 584 690 L 585 691 L 585 695 L 586 696 L 586 700 L 587 701 L 587 705 L 588 706 L 588 709 L 589 710 L 589 714 L 590 715 L 590 719 L 591 720 L 591 724 L 592 725 L 592 728 L 593 729 L 593 733 L 594 734 L 594 737 L 595 738 L 595 740 L 596 741 L 596 743 L 597 744 L 597 745 L 598 746 L 598 747 L 599 748 L 599 749 L 601 751 L 601 752 L 611 762 L 612 762 L 614 764 L 615 764 L 616 765 L 617 765 L 618 766 L 619 766 L 620 767 L 621 767 L 622 768 L 624 768 L 625 769 L 628 769 L 629 770 L 891 770 L 892 769 L 896 769 L 897 768 L 899 768 L 900 767 L 901 767 L 902 766 L 903 766 L 904 765 L 905 765 L 906 764 L 907 764 L 910 761 L 911 761 L 917 755 L 917 754 L 920 751 L 920 750 L 922 748 L 922 747 L 923 746 L 923 745 L 924 744 L 924 742 L 925 741 L 925 739 L 926 738 L 926 735 L 927 734 L 927 731 L 928 730 L 928 726 L 929 725 L 929 721 L 930 720 L 930 716 L 931 715 L 931 711 L 932 710 L 932 706 L 933 705 L 933 701 L 934 700 L 934 696 L 935 695 L 935 691 L 936 690 L 936 686 L 937 685 L 937 681 L 938 680 L 938 676 L 939 675 L 939 671 L 940 670 L 940 666 L 941 665 L 941 661 L 942 660 L 942 656 L 943 655 L 943 650 L 944 649 L 944 645 L 945 644 L 945 640 L 946 639 L 946 635 L 947 634 L 947 630 L 948 629 L 948 625 L 949 624 L 949 619 L 950 618 L 950 615 L 951 614 L 951 610 L 952 609 L 952 605 L 953 604 L 953 600 L 954 599 L 954 595 L 955 594 L 955 591 L 957 589 L 960 589 L 961 588 L 964 588 L 965 587 L 967 587 L 968 586 L 970 586 L 971 585 L 973 585 L 974 584 L 975 584 L 976 583 L 977 583 L 978 582 L 979 582 L 980 581 L 981 581 L 983 579 L 984 579 L 985 578 L 986 578 L 989 575 L 990 575 L 993 572 L 994 572 L 1006 560 L 1006 559 L 1010 555 L 1010 554 L 1012 552 L 1012 551 L 1013 550 L 1013 549 L 1014 548 L 1014 547 L 1015 546 L 1015 545 L 1016 544 L 1016 543 L 1017 542 L 1017 541 L 1018 540 L 1018 539 L 1019 538 L 1019 537 L 1020 536 L 1020 534 L 1021 533 L 1021 531 L 1022 530 L 1022 528 L 1023 527 L 1023 524 L 1024 523 L 1024 518 L 1025 517 L 1025 510 L 1026 509 L 1026 495 L 1025 494 L 1025 488 L 1024 487 L 1024 483 L 1023 482 L 1023 478 L 1022 477 L 1022 475 L 1021 474 L 1021 472 L 1020 471 L 1020 469 L 1019 468 L 1019 467 L 1018 466 L 1018 465 L 1017 464 L 1017 463 L 1016 462 L 1016 461 L 1015 460 L 1015 459 L 1014 458 L 1014 457 L 1013 456 L 1013 455 L 1011 453 L 1011 452 L 1010 451 L 1010 450 L 1007 447 L 1007 446 L 1005 444 L 1005 443 L 992 430 L 991 430 L 990 429 L 987 429 L 986 428 L 985 429 L 982 429 L 981 430 L 980 430 L 979 431 L 977 431 L 976 432 L 974 432 L 973 433 L 970 433 L 969 434 L 965 434 L 964 435 L 956 435 L 955 436 L 952 436 L 951 435 L 942 435 L 941 434 L 938 434 L 937 433 L 935 433 L 934 432 L 932 432 L 931 431 L 930 431 L 929 430 L 928 430 L 927 429 L 926 429 L 925 428 L 924 428 L 923 427 L 922 427 L 920 425 L 919 425 L 909 415 L 909 414 L 906 411 L 906 410 L 904 408 L 904 407 L 903 406 L 903 405 L 902 404 L 902 403 L 901 402 L 901 401 L 900 400 L 900 399 L 899 398 L 899 396 L 898 395 L 898 393 L 897 392 L 897 388 L 896 387 L 896 381 L 895 380 L 895 371 L 894 370 L 894 368 L 893 367 L 893 366 L 892 365 L 892 364 L 889 361 L 888 361 L 887 360 L 885 360 L 884 359 L 878 359 L 877 358 L 873 358 L 872 357 L 870 357 L 869 356 L 867 356 L 866 355 L 864 355 L 862 353 L 861 353 L 860 352 L 859 352 L 858 351 L 857 351 L 855 349 L 854 349 L 851 346 L 850 346 L 842 338 L 842 337 L 838 333 L 838 332 L 836 330 L 836 329 L 835 328 L 835 327 L 834 326 L 834 325 L 833 324 L 833 323 L 832 322 L 832 321 L 831 320 L 831 319 L 830 318 L 830 316 L 829 315 L 829 313 L 828 312 L 828 309 L 827 308 L 827 304 L 826 303 L 826 287 L 827 286 L 827 281 L 828 280 L 828 276 L 829 275 L 829 268 L 828 267 L 828 265 L 824 261 L 823 261 L 822 260 L 819 260 L 818 259 L 815 259 L 814 258 L 810 258 L 809 257 L 804 257 L 803 256 L 797 256 L 796 255 L 788 255 L 787 254 L 773 254 L 772 253 Z" stroke-linecap="round" />
</g>
<g transform="matrix(1 0 0 1 591.85 663.75)"  >
<path style="stroke: rgb(0,0,0); stroke-width: 1; stroke-dasharray: none; stroke-linecap: butt; stroke-dashoffset: 0; stroke-linejoin: miter; stroke-miterlimit: 4; fill: rgb(255,255,255); fill-rule: nonzero; opacity: 1;" vector-effect="non-scaling-stroke"  transform=" translate(-760, -658.5)" d="M 762 576 L 763 575 L 764 576 L 765 576 L 766 577 L 767 577 L 769 579 L 770 579 L 771 580 L 772 580 L 773 581 L 774 581 L 775 582 L 776 582 L 777 583 L 778 583 L 779 584 L 781 584 L 782 585 L 783 585 L 784 586 L 786 586 L 787 587 L 790 587 L 791 588 L 794 588 L 795 589 L 798 589 L 799 590 L 804 590 L 805 591 L 813 591 L 814 592 L 834 592 L 835 591 L 843 591 L 844 590 L 848 590 L 849 589 L 853 589 L 854 588 L 857 588 L 858 587 L 860 587 L 861 586 L 862 586 L 863 585 L 865 585 L 866 584 L 867 584 L 868 583 L 870 583 L 871 582 L 872 582 L 873 581 L 874 581 L 875 580 L 876 580 L 877 579 L 878 579 L 879 578 L 880 578 L 882 576 L 883 576 L 884 577 L 885 577 L 887 579 L 888 579 L 890 581 L 891 581 L 892 582 L 893 582 L 894 583 L 895 583 L 896 584 L 898 584 L 899 585 L 900 585 L 901 586 L 904 586 L 905 587 L 907 587 L 908 588 L 911 588 L 912 589 L 916 589 L 917 590 L 924 590 L 925 591 L 925 594 L 924 595 L 924 599 L 923 600 L 923 604 L 922 605 L 922 609 L 921 610 L 921 615 L 920 616 L 920 620 L 919 621 L 919 625 L 918 626 L 918 630 L 917 631 L 917 635 L 916 636 L 916 640 L 915 641 L 915 645 L 914 646 L 914 651 L 913 652 L 913 655 L 912 656 L 912 661 L 911 662 L 911 666 L 910 667 L 910 671 L 909 672 L 909 676 L 908 677 L 908 681 L 907 682 L 907 686 L 906 687 L 906 691 L 905 692 L 905 696 L 904 697 L 904 701 L 903 702 L 903 706 L 902 707 L 902 711 L 901 712 L 901 716 L 900 717 L 900 720 L 899 721 L 899 725 L 898 726 L 898 729 L 897 730 L 897 732 L 896 733 L 896 734 L 895 735 L 895 736 L 891 740 L 890 740 L 889 741 L 887 741 L 886 742 L 852 742 L 851 741 L 851 740 L 852 739 L 852 734 L 853 733 L 853 726 L 854 725 L 854 720 L 855 719 L 855 712 L 856 711 L 856 706 L 857 705 L 857 699 L 858 698 L 858 692 L 859 691 L 859 685 L 860 684 L 860 678 L 861 677 L 861 671 L 862 670 L 862 664 L 863 663 L 863 657 L 864 656 L 864 650 L 865 649 L 865 642 L 866 641 L 866 628 L 865 627 L 865 626 L 864 625 L 864 624 L 861 621 L 860 621 L 859 620 L 857 620 L 856 619 L 847 619 L 846 620 L 845 620 L 844 621 L 843 621 L 839 625 L 839 626 L 838 627 L 838 628 L 837 629 L 837 635 L 836 636 L 836 643 L 835 644 L 835 651 L 834 652 L 834 658 L 833 659 L 833 665 L 832 666 L 832 673 L 831 674 L 831 680 L 830 681 L 830 687 L 829 688 L 829 695 L 828 696 L 828 702 L 827 703 L 827 709 L 826 710 L 826 717 L 825 718 L 825 724 L 824 725 L 824 732 L 823 733 L 823 739 L 822 740 L 822 741 L 821 742 L 778 742 L 777 741 L 777 630 L 776 629 L 776 627 L 775 626 L 775 625 L 771 621 L 770 621 L 769 620 L 768 620 L 767 619 L 757 619 L 756 620 L 755 620 L 753 622 L 752 622 L 751 623 L 751 624 L 749 626 L 749 627 L 748 628 L 748 741 L 747 742 L 702 742 L 700 740 L 700 733 L 699 732 L 699 726 L 698 725 L 698 720 L 697 719 L 697 712 L 696 711 L 696 706 L 695 705 L 695 700 L 694 699 L 694 692 L 693 691 L 693 686 L 692 685 L 692 678 L 691 677 L 691 671 L 690 670 L 690 663 L 689 662 L 689 657 L 688 656 L 688 650 L 687 649 L 687 643 L 686 642 L 686 635 L 685 634 L 685 630 L 684 629 L 684 627 L 683 626 L 683 625 L 679 621 L 678 621 L 677 620 L 675 620 L 674 619 L 666 619 L 665 620 L 664 620 L 663 621 L 662 621 L 657 626 L 657 628 L 656 629 L 656 638 L 657 639 L 657 645 L 658 646 L 658 652 L 659 653 L 659 660 L 660 661 L 660 667 L 661 668 L 661 675 L 662 676 L 662 681 L 663 682 L 663 688 L 664 689 L 664 695 L 665 696 L 665 701 L 666 702 L 666 709 L 667 710 L 667 716 L 668 717 L 668 723 L 669 724 L 669 729 L 670 730 L 670 736 L 671 737 L 671 741 L 670 742 L 634 742 L 633 741 L 631 741 L 625 735 L 625 734 L 624 733 L 624 731 L 623 730 L 623 728 L 622 727 L 622 723 L 621 722 L 621 718 L 620 717 L 620 713 L 619 712 L 619 709 L 618 708 L 618 704 L 617 703 L 617 699 L 616 698 L 616 694 L 615 693 L 615 690 L 614 689 L 614 684 L 613 683 L 613 680 L 612 679 L 612 675 L 611 674 L 611 671 L 610 670 L 610 666 L 609 665 L 609 661 L 608 660 L 608 656 L 607 655 L 607 651 L 606 650 L 606 646 L 605 645 L 605 642 L 604 641 L 604 637 L 603 636 L 603 632 L 602 631 L 602 627 L 601 626 L 601 622 L 600 621 L 600 617 L 599 616 L 599 612 L 598 611 L 598 607 L 597 606 L 597 602 L 596 601 L 596 597 L 595 596 L 595 591 L 596 590 L 604 590 L 605 589 L 610 589 L 611 588 L 614 588 L 615 587 L 617 587 L 618 586 L 620 586 L 621 585 L 623 585 L 624 584 L 625 584 L 626 583 L 627 583 L 628 582 L 629 582 L 630 581 L 631 581 L 632 580 L 633 580 L 634 579 L 635 579 L 637 577 L 638 577 L 639 576 L 641 576 L 642 577 L 643 577 L 645 579 L 646 579 L 647 580 L 648 580 L 650 582 L 652 582 L 653 583 L 654 583 L 655 584 L 656 584 L 657 585 L 659 585 L 660 586 L 662 586 L 663 587 L 666 587 L 667 588 L 669 588 L 670 589 L 674 589 L 675 590 L 679 590 L 680 591 L 689 591 L 690 592 L 713 592 L 714 591 L 721 591 L 722 590 L 726 590 L 727 589 L 731 589 L 732 588 L 734 588 L 735 587 L 738 587 L 739 586 L 741 586 L 742 585 L 744 585 L 745 584 L 746 584 L 747 583 L 749 583 L 750 582 L 751 582 L 752 581 L 753 581 L 754 580 L 755 580 L 756 579 L 757 579 L 759 577 L 760 577 L 761 576 Z" stroke-linecap="round" />
</g>
<g transform="matrix(1 0 0 1 591.85 428.25)"  >
<path style="stroke: none; stroke-width: 1; stroke-dasharray: none; stroke-linecap: butt; stroke-dashoffset: 0; stroke-linejoin: miter; stroke-miterlimit: 4; fill: rgb(250,250,250); fill-rule: nonzero; opacity: 1;" vector-effect="non-scaling-stroke"  transform=" translate(-760, -423)" d="M 749 284 L 750 283 L 778 283 L 779 284 L 791 284 L 792 285 L 796 285 L 797 286 L 797 306 L 798 307 L 798 313 L 799 314 L 799 318 L 800 319 L 800 321 L 801 322 L 801 325 L 802 326 L 802 328 L 803 329 L 803 330 L 804 331 L 804 333 L 805 334 L 805 335 L 806 336 L 806 337 L 807 338 L 807 339 L 808 340 L 808 341 L 809 342 L 809 343 L 811 345 L 811 346 L 813 348 L 813 349 L 815 351 L 815 352 L 818 355 L 818 356 L 830 368 L 831 368 L 834 371 L 835 371 L 838 374 L 839 374 L 840 375 L 841 375 L 843 377 L 844 377 L 845 378 L 846 378 L 847 379 L 848 379 L 849 380 L 850 380 L 851 381 L 852 381 L 853 382 L 855 382 L 856 383 L 858 383 L 859 384 L 861 384 L 862 385 L 865 385 L 867 387 L 867 390 L 868 391 L 868 396 L 869 397 L 869 400 L 870 401 L 870 403 L 871 404 L 871 406 L 872 407 L 872 409 L 873 410 L 873 411 L 874 412 L 874 414 L 875 415 L 875 416 L 876 417 L 876 418 L 878 420 L 878 421 L 879 422 L 879 423 L 881 425 L 881 426 L 883 428 L 883 429 L 886 432 L 886 433 L 901 448 L 902 448 L 904 450 L 905 450 L 907 452 L 908 452 L 910 454 L 911 454 L 912 455 L 913 455 L 914 456 L 915 456 L 916 457 L 917 457 L 918 458 L 920 458 L 921 459 L 922 459 L 923 460 L 925 460 L 926 461 L 929 461 L 930 462 L 933 462 L 934 463 L 938 463 L 939 464 L 946 464 L 947 465 L 962 465 L 963 464 L 969 464 L 970 463 L 973 463 L 974 462 L 977 462 L 978 461 L 980 461 L 984 465 L 984 466 L 986 468 L 986 469 L 988 471 L 988 472 L 989 473 L 989 474 L 990 475 L 990 476 L 991 477 L 991 478 L 992 479 L 992 481 L 993 482 L 993 484 L 994 485 L 994 487 L 995 488 L 995 492 L 996 493 L 996 499 L 997 500 L 997 505 L 996 506 L 996 514 L 995 515 L 995 518 L 994 519 L 994 521 L 993 522 L 993 524 L 992 525 L 992 527 L 991 528 L 991 529 L 990 530 L 990 531 L 988 533 L 988 534 L 987 535 L 987 536 L 985 538 L 985 539 L 972 552 L 971 552 L 969 554 L 968 554 L 966 556 L 965 556 L 964 557 L 963 557 L 962 558 L 961 558 L 960 559 L 958 559 L 957 560 L 956 560 L 955 561 L 952 561 L 951 562 L 947 562 L 946 563 L 930 563 L 929 562 L 923 562 L 922 561 L 919 561 L 918 560 L 917 560 L 916 559 L 914 559 L 913 558 L 912 558 L 911 557 L 910 557 L 909 556 L 908 556 L 907 555 L 906 555 L 904 553 L 903 553 L 901 551 L 900 551 L 894 545 L 893 545 L 891 543 L 889 543 L 888 542 L 884 542 L 883 543 L 880 543 L 879 544 L 878 544 L 876 546 L 875 546 L 872 549 L 871 549 L 869 551 L 868 551 L 867 552 L 866 552 L 865 553 L 864 553 L 862 555 L 861 555 L 860 556 L 858 556 L 857 557 L 856 557 L 855 558 L 853 558 L 852 559 L 851 559 L 850 560 L 846 560 L 845 561 L 843 561 L 842 562 L 836 562 L 835 563 L 813 563 L 812 562 L 806 562 L 805 561 L 802 561 L 801 560 L 799 560 L 798 559 L 796 559 L 795 558 L 793 558 L 792 557 L 791 557 L 790 556 L 788 556 L 787 555 L 786 555 L 784 553 L 783 553 L 782 552 L 781 552 L 780 551 L 779 551 L 776 548 L 775 548 L 772 545 L 771 545 L 770 544 L 769 544 L 768 543 L 765 543 L 764 542 L 763 542 L 762 543 L 758 543 L 757 544 L 756 544 L 753 547 L 752 547 L 750 549 L 749 549 L 746 552 L 745 552 L 744 553 L 743 553 L 742 554 L 741 554 L 740 555 L 739 555 L 738 556 L 737 556 L 736 557 L 735 557 L 734 558 L 732 558 L 731 559 L 729 559 L 728 560 L 726 560 L 725 561 L 722 561 L 721 562 L 717 562 L 716 563 L 689 563 L 688 562 L 682 562 L 681 561 L 678 561 L 677 560 L 675 560 L 674 559 L 672 559 L 671 558 L 669 558 L 668 557 L 667 557 L 666 556 L 665 556 L 664 555 L 663 555 L 662 554 L 661 554 L 660 553 L 659 553 L 657 551 L 656 551 L 654 549 L 653 549 L 650 546 L 649 546 L 647 544 L 646 544 L 645 543 L 635 543 L 634 544 L 632 544 L 630 546 L 629 546 L 625 550 L 624 550 L 622 552 L 621 552 L 619 554 L 618 554 L 617 555 L 616 555 L 615 556 L 614 556 L 613 557 L 612 557 L 611 558 L 610 558 L 609 559 L 607 559 L 606 560 L 604 560 L 603 561 L 600 561 L 599 562 L 595 562 L 594 563 L 574 563 L 573 562 L 569 562 L 568 561 L 566 561 L 565 560 L 563 560 L 562 559 L 560 559 L 559 558 L 558 558 L 557 557 L 556 557 L 555 556 L 554 556 L 553 555 L 552 555 L 550 553 L 549 553 L 544 548 L 543 548 L 537 542 L 537 541 L 535 539 L 535 538 L 533 536 L 533 535 L 532 534 L 532 533 L 530 531 L 530 530 L 529 529 L 529 528 L 528 527 L 528 525 L 527 524 L 527 522 L 526 521 L 526 519 L 525 518 L 525 515 L 524 514 L 524 508 L 523 507 L 523 497 L 524 496 L 524 490 L 525 489 L 525 485 L 526 484 L 526 481 L 527 480 L 527 478 L 528 477 L 528 476 L 529 475 L 529 474 L 530 473 L 530 472 L 531 471 L 531 470 L 532 469 L 532 468 L 534 466 L 534 465 L 536 463 L 536 462 L 539 459 L 539 458 L 549 448 L 550 448 L 553 445 L 554 445 L 556 443 L 557 443 L 558 442 L 559 442 L 560 441 L 561 441 L 563 439 L 565 439 L 566 438 L 567 438 L 568 437 L 569 437 L 570 436 L 572 436 L 573 435 L 574 435 L 575 434 L 576 434 L 577 433 L 578 433 L 582 429 L 582 427 L 583 426 L 583 425 L 584 424 L 584 421 L 585 420 L 585 417 L 586 416 L 586 413 L 587 412 L 587 409 L 588 408 L 588 406 L 589 405 L 589 403 L 590 402 L 590 400 L 591 399 L 591 397 L 592 396 L 592 395 L 593 394 L 593 393 L 594 392 L 594 390 L 595 389 L 595 388 L 596 387 L 596 386 L 597 385 L 597 384 L 598 383 L 598 382 L 599 381 L 599 380 L 600 379 L 600 378 L 602 376 L 602 375 L 603 374 L 603 373 L 605 371 L 605 370 L 606 369 L 606 368 L 608 366 L 608 365 L 611 362 L 611 361 L 613 359 L 613 358 L 617 354 L 617 353 L 621 349 L 621 348 L 629 340 L 629 339 L 635 333 L 636 333 L 643 326 L 644 326 L 649 321 L 650 321 L 653 318 L 654 318 L 656 316 L 657 316 L 660 313 L 661 313 L 662 312 L 663 312 L 665 310 L 666 310 L 667 309 L 668 309 L 670 307 L 671 307 L 672 306 L 673 306 L 675 304 L 676 304 L 677 303 L 678 303 L 679 302 L 681 302 L 682 301 L 683 301 L 684 300 L 685 300 L 686 299 L 687 299 L 688 298 L 690 298 L 691 297 L 692 297 L 693 296 L 695 296 L 696 295 L 697 295 L 698 294 L 700 294 L 701 293 L 703 293 L 704 292 L 706 292 L 707 291 L 709 291 L 710 290 L 713 290 L 714 289 L 717 289 L 718 288 L 721 288 L 722 287 L 726 287 L 727 286 L 731 286 L 732 285 L 739 285 L 740 284 Z" stroke-linecap="round" />
</g>
<g transform="matrix(1 0 0 1 624.35 440.75)"  >
<path style="stroke: none; stroke-width: 1; stroke-dasharray: none; stroke-linecap: butt; stroke-dashoffset: 0; stroke-linejoin: miter; stroke-miterlimit: 4; fill: rgb(0,0,0); fill-rule: nonzero; opacity: 1;" vector-effect="non-scaling-stroke"  transform=" translate(-792.5, -435.5)" d="M 789 416 L 788 417 L 786 417 L 785 418 L 784 418 L 783 419 L 782 419 L 777 424 L 777 425 L 775 427 L 775 429 L 774 430 L 774 433 L 773 434 L 773 439 L 774 440 L 774 443 L 775 444 L 775 445 L 776 446 L 776 447 L 781 452 L 782 452 L 784 454 L 786 454 L 787 455 L 798 455 L 799 454 L 801 454 L 802 453 L 803 453 L 810 446 L 810 445 L 811 444 L 811 442 L 812 441 L 812 430 L 811 429 L 811 427 L 809 425 L 809 424 L 805 420 L 804 420 L 802 418 L 801 418 L 800 417 L 798 417 L 797 416 Z" stroke-linecap="round" />
</g>
<g transform="matrix(1 0 0 1 486.85 440.75)"  >
<path style="stroke: none; stroke-width: 1; stroke-dasharray: none; stroke-linecap: butt; stroke-dashoffset: 0; stroke-linejoin: miter; stroke-miterlimit: 4; fill: rgb(0,0,0); fill-rule: nonzero; opacity: 1;" vector-effect="non-scaling-stroke"  transform=" translate(-655, -435.5)" d="M 652 416 L 651 417 L 648 417 L 647 418 L 645 418 L 642 421 L 641 421 L 640 422 L 640 423 L 638 425 L 638 426 L 637 427 L 637 428 L 636 429 L 636 431 L 635 432 L 635 440 L 636 441 L 636 443 L 637 444 L 637 445 L 638 446 L 638 447 L 643 452 L 644 452 L 646 454 L 648 454 L 649 455 L 660 455 L 661 454 L 663 454 L 664 453 L 665 453 L 667 451 L 668 451 L 670 449 L 670 448 L 672 446 L 672 445 L 673 444 L 673 443 L 674 442 L 674 438 L 675 437 L 675 434 L 674 433 L 674 430 L 673 429 L 673 427 L 671 425 L 671 424 L 666 419 L 665 419 L 664 418 L 663 418 L 662 417 L 659 417 L 658 416 Z" stroke-linecap="round" />
</g>
<g transform="matrix(1 0 0 1 559.35 362.25)"  >
<path style="stroke: none; stroke-width: 1; stroke-dasharray: none; stroke-linecap: butt; stroke-dashoffset: 0; stroke-linejoin: miter; stroke-miterlimit: 4; fill: rgb(0,0,0); fill-rule: nonzero; opacity: 1;" vector-effect="non-scaling-stroke"  transform=" translate(-727.5, -357)" d="M 723 338 L 722 339 L 720 339 L 719 340 L 718 340 L 717 341 L 716 341 L 711 346 L 711 347 L 710 348 L 710 349 L 709 350 L 709 351 L 708 352 L 708 363 L 709 364 L 709 365 L 710 366 L 710 367 L 711 368 L 711 369 L 715 373 L 716 373 L 718 375 L 720 375 L 721 376 L 733 376 L 734 375 L 736 375 L 738 373 L 739 373 L 744 368 L 744 367 L 745 366 L 745 365 L 746 364 L 746 362 L 747 361 L 747 353 L 746 352 L 746 350 L 745 349 L 745 348 L 744 347 L 744 346 L 739 341 L 738 341 L 736 339 L 734 339 L 733 338 Z" stroke-linecap="round" />
</g>
<g transform="matrix(NaN NaN NaN NaN 0 0)"  >
<g style=""   >
</g>
</g>
<g transform="matrix(NaN NaN NaN NaN 0 0)"  >
<g style=""   >
</g>
</g>
<g transform="matrix(NaN NaN NaN NaN 0 0)"  >
<g style=""   >
</g>
</g>
<g transform="matrix(NaN NaN NaN NaN 0 0)"  >
<g style=""   >
</g>
</g>
</svg>